<mxfile host="app.diagrams.net" agent="Mozilla/5.0 (Windows NT 10.0; Win64; x64) AppleWebKit/537.36 (KHTML, like Gecko) Chrome/135.0.0.0 Safari/537.36" version="26.2.14">
  <diagram name="Page-1" id="IcLrQa5-wyNj20YAnBWU">
    <mxGraphModel dx="3335" dy="1016" grid="1" gridSize="10" guides="1" tooltips="1" connect="1" arrows="1" fold="1" page="1" pageScale="1" pageWidth="827" pageHeight="1169" math="0" shadow="0">
      <root>
        <mxCell id="0" />
        <mxCell id="1" parent="0" />
        <mxCell id="0aA-av67z8XiDm5z57Wx-1" value="Управление заказами" style="swimlane;startSize=20;whiteSpace=wrap;html=1;" parent="1" vertex="1">
          <mxGeometry x="-330" y="250" width="350" height="1480" as="geometry" />
        </mxCell>
        <mxCell id="0aA-av67z8XiDm5z57Wx-2" style="edgeStyle=orthogonalEdgeStyle;rounded=0;orthogonalLoop=1;jettySize=auto;html=1;entryX=0.5;entryY=0;entryDx=0;entryDy=0;" parent="0aA-av67z8XiDm5z57Wx-1" source="0aA-av67z8XiDm5z57Wx-3" target="0aA-av67z8XiDm5z57Wx-5" edge="1">
          <mxGeometry relative="1" as="geometry" />
        </mxCell>
        <mxCell id="0aA-av67z8XiDm5z57Wx-3" value="" style="ellipse;html=1;shape=startState;fillColor=#000000;strokeColor=#ff0000;" parent="0aA-av67z8XiDm5z57Wx-1" vertex="1">
          <mxGeometry x="135" y="50" width="30" height="30" as="geometry" />
        </mxCell>
        <mxCell id="0aA-av67z8XiDm5z57Wx-4" style="edgeStyle=orthogonalEdgeStyle;rounded=0;orthogonalLoop=1;jettySize=auto;html=1;" parent="0aA-av67z8XiDm5z57Wx-1" source="0aA-av67z8XiDm5z57Wx-5" target="0aA-av67z8XiDm5z57Wx-7" edge="1">
          <mxGeometry relative="1" as="geometry" />
        </mxCell>
        <mxCell id="0aA-av67z8XiDm5z57Wx-5" value="Получить Заказ" style="rounded=1;whiteSpace=wrap;html=1;arcSize=40;fontColor=#000000;fillColor=#ffffc0;strokeColor=#ff0000;" parent="0aA-av67z8XiDm5z57Wx-1" vertex="1">
          <mxGeometry x="90" y="100" width="120" height="40" as="geometry" />
        </mxCell>
        <mxCell id="0aA-av67z8XiDm5z57Wx-6" style="edgeStyle=orthogonalEdgeStyle;rounded=0;orthogonalLoop=1;jettySize=auto;html=1;entryX=0.5;entryY=0;entryDx=0;entryDy=0;" parent="0aA-av67z8XiDm5z57Wx-1" source="0aA-av67z8XiDm5z57Wx-7" target="0aA-av67z8XiDm5z57Wx-11" edge="1">
          <mxGeometry relative="1" as="geometry" />
        </mxCell>
        <mxCell id="0aA-av67z8XiDm5z57Wx-7" value="Проверить наличия товара на складе" style="rounded=1;whiteSpace=wrap;html=1;arcSize=40;fontColor=#000000;fillColor=#ffffc0;strokeColor=#ff0000;" parent="0aA-av67z8XiDm5z57Wx-1" vertex="1">
          <mxGeometry x="90" y="170" width="120" height="40" as="geometry" />
        </mxCell>
        <mxCell id="0aA-av67z8XiDm5z57Wx-8" style="edgeStyle=orthogonalEdgeStyle;rounded=0;orthogonalLoop=1;jettySize=auto;html=1;entryX=0.5;entryY=0;entryDx=0;entryDy=0;exitX=0;exitY=0.5;exitDx=0;exitDy=0;" parent="0aA-av67z8XiDm5z57Wx-1" source="0aA-av67z8XiDm5z57Wx-11" target="0aA-av67z8XiDm5z57Wx-13" edge="1">
          <mxGeometry relative="1" as="geometry">
            <mxPoint x="70" y="340" as="targetPoint" />
          </mxGeometry>
        </mxCell>
        <mxCell id="0aA-av67z8XiDm5z57Wx-9" style="edgeStyle=orthogonalEdgeStyle;rounded=0;orthogonalLoop=1;jettySize=auto;html=1;entryX=0.5;entryY=0;entryDx=0;entryDy=0;exitX=1;exitY=0.5;exitDx=0;exitDy=0;" parent="0aA-av67z8XiDm5z57Wx-1" source="0aA-av67z8XiDm5z57Wx-11" target="0aA-av67z8XiDm5z57Wx-18" edge="1">
          <mxGeometry relative="1" as="geometry">
            <mxPoint x="230" y="340" as="targetPoint" />
          </mxGeometry>
        </mxCell>
        <mxCell id="0aA-av67z8XiDm5z57Wx-10" value="да" style="edgeLabel;html=1;align=center;verticalAlign=middle;resizable=0;points=[];" parent="0aA-av67z8XiDm5z57Wx-9" vertex="1" connectable="0">
          <mxGeometry x="-0.2517" y="-1" relative="1" as="geometry">
            <mxPoint x="-4" y="-11" as="offset" />
          </mxGeometry>
        </mxCell>
        <mxCell id="0aA-av67z8XiDm5z57Wx-11" value="Товар на складе?" style="rhombus;whiteSpace=wrap;html=1;fontColor=#000000;fillColor=#ffffc0;strokeColor=#ff0000;" parent="0aA-av67z8XiDm5z57Wx-1" vertex="1">
          <mxGeometry x="100" y="240" width="100" height="50" as="geometry" />
        </mxCell>
        <mxCell id="0aA-av67z8XiDm5z57Wx-12" style="edgeStyle=orthogonalEdgeStyle;rounded=0;orthogonalLoop=1;jettySize=auto;html=1;entryX=0.5;entryY=0;entryDx=0;entryDy=0;" parent="0aA-av67z8XiDm5z57Wx-1" source="0aA-av67z8XiDm5z57Wx-13" target="0aA-av67z8XiDm5z57Wx-15" edge="1">
          <mxGeometry relative="1" as="geometry" />
        </mxCell>
        <mxCell id="0aA-av67z8XiDm5z57Wx-13" value="Уведомить клиента о нехватке товара" style="rounded=1;whiteSpace=wrap;html=1;arcSize=40;fontColor=#000000;fillColor=#ffffc0;strokeColor=#ff0000;" parent="0aA-av67z8XiDm5z57Wx-1" vertex="1">
          <mxGeometry x="15" y="310" width="120" height="40" as="geometry" />
        </mxCell>
        <mxCell id="0aA-av67z8XiDm5z57Wx-14" style="edgeStyle=orthogonalEdgeStyle;rounded=0;orthogonalLoop=1;jettySize=auto;html=1;entryX=0.25;entryY=0.5;entryDx=0;entryDy=0;entryPerimeter=0;" parent="0aA-av67z8XiDm5z57Wx-1" source="0aA-av67z8XiDm5z57Wx-15" target="0aA-av67z8XiDm5z57Wx-21" edge="1">
          <mxGeometry relative="1" as="geometry">
            <mxPoint x="100" y="1360" as="targetPoint" />
            <Array as="points" />
          </mxGeometry>
        </mxCell>
        <mxCell id="0aA-av67z8XiDm5z57Wx-15" value="Предложить замену или отмену заказа" style="rounded=1;whiteSpace=wrap;html=1;arcSize=40;fontColor=#000000;fillColor=#ffffc0;strokeColor=#ff0000;" parent="0aA-av67z8XiDm5z57Wx-1" vertex="1">
          <mxGeometry x="15" y="390" width="120" height="40" as="geometry" />
        </mxCell>
        <mxCell id="0aA-av67z8XiDm5z57Wx-16" value="&lt;div&gt;&lt;br&gt;&lt;/div&gt;" style="ellipse;html=1;shape=endState;fillColor=#000000;strokeColor=#ff0000;" parent="0aA-av67z8XiDm5z57Wx-1" vertex="1">
          <mxGeometry x="125" y="1430" width="30" height="30" as="geometry" />
        </mxCell>
        <mxCell id="0aA-av67z8XiDm5z57Wx-17" style="edgeStyle=orthogonalEdgeStyle;rounded=0;orthogonalLoop=1;jettySize=auto;html=1;entryX=0.5;entryY=0;entryDx=0;entryDy=0;" parent="0aA-av67z8XiDm5z57Wx-1" source="0aA-av67z8XiDm5z57Wx-18" target="0aA-av67z8XiDm5z57Wx-19" edge="1">
          <mxGeometry relative="1" as="geometry" />
        </mxCell>
        <mxCell id="0aA-av67z8XiDm5z57Wx-18" value="Создать заказ в системе" style="rounded=1;whiteSpace=wrap;html=1;arcSize=40;fontColor=#000000;fillColor=#ffffc0;strokeColor=#ff0000;" parent="0aA-av67z8XiDm5z57Wx-1" vertex="1">
          <mxGeometry x="170" y="300" width="120" height="40" as="geometry" />
        </mxCell>
        <mxCell id="0aA-av67z8XiDm5z57Wx-19" value="Подтвердить заказ клиенту" style="rounded=1;whiteSpace=wrap;html=1;arcSize=40;fontColor=#000000;fillColor=#ffffc0;strokeColor=#ff0000;" parent="0aA-av67z8XiDm5z57Wx-1" vertex="1">
          <mxGeometry x="170" y="390" width="120" height="40" as="geometry" />
        </mxCell>
        <mxCell id="0aA-av67z8XiDm5z57Wx-20" style="edgeStyle=orthogonalEdgeStyle;rounded=0;orthogonalLoop=1;jettySize=auto;html=1;" parent="0aA-av67z8XiDm5z57Wx-1" source="0aA-av67z8XiDm5z57Wx-21" target="0aA-av67z8XiDm5z57Wx-16" edge="1">
          <mxGeometry relative="1" as="geometry" />
        </mxCell>
        <mxCell id="0aA-av67z8XiDm5z57Wx-21" value="" style="shape=line;html=1;strokeWidth=6;strokeColor=#ff0000;" parent="0aA-av67z8XiDm5z57Wx-1" vertex="1">
          <mxGeometry x="40" y="1370" width="200" height="10" as="geometry" />
        </mxCell>
        <mxCell id="0aA-av67z8XiDm5z57Wx-22" value="нет" style="text;html=1;align=center;verticalAlign=middle;resizable=0;points=[];autosize=1;strokeColor=none;fillColor=none;" parent="0aA-av67z8XiDm5z57Wx-1" vertex="1">
          <mxGeometry x="70" y="240" width="40" height="30" as="geometry" />
        </mxCell>
        <mxCell id="0aA-av67z8XiDm5z57Wx-23" value="Поддержка клиентов" style="swimlane;startSize=20;whiteSpace=wrap;html=1;" parent="1" vertex="1">
          <mxGeometry x="600" y="250" width="300" height="1480" as="geometry" />
        </mxCell>
        <mxCell id="0aA-av67z8XiDm5z57Wx-24" style="edgeStyle=orthogonalEdgeStyle;rounded=0;orthogonalLoop=1;jettySize=auto;html=1;entryX=0.5;entryY=0;entryDx=0;entryDy=0;" parent="0aA-av67z8XiDm5z57Wx-23" source="0aA-av67z8XiDm5z57Wx-25" target="0aA-av67z8XiDm5z57Wx-27" edge="1">
          <mxGeometry relative="1" as="geometry" />
        </mxCell>
        <mxCell id="0aA-av67z8XiDm5z57Wx-25" value="Информировать клиента о статусе заказа" style="rounded=1;whiteSpace=wrap;html=1;arcSize=40;fontColor=#000000;fillColor=#ffffc0;strokeColor=#ff0000;" parent="0aA-av67z8XiDm5z57Wx-23" vertex="1">
          <mxGeometry x="90" y="1060" width="140" height="40" as="geometry" />
        </mxCell>
        <mxCell id="0aA-av67z8XiDm5z57Wx-26" style="edgeStyle=orthogonalEdgeStyle;rounded=0;orthogonalLoop=1;jettySize=auto;html=1;entryX=0.5;entryY=0;entryDx=0;entryDy=0;" parent="0aA-av67z8XiDm5z57Wx-23" source="0aA-av67z8XiDm5z57Wx-27" target="0aA-av67z8XiDm5z57Wx-28" edge="1">
          <mxGeometry relative="1" as="geometry" />
        </mxCell>
        <mxCell id="0aA-av67z8XiDm5z57Wx-27" value="Предоставить клиенту информацию о доставке" style="rounded=1;whiteSpace=wrap;html=1;arcSize=40;fontColor=#000000;fillColor=#ffffc0;strokeColor=#ff0000;" parent="0aA-av67z8XiDm5z57Wx-23" vertex="1">
          <mxGeometry x="90" y="1140" width="140" height="40" as="geometry" />
        </mxCell>
        <mxCell id="0aA-av67z8XiDm5z57Wx-28" value="Обеспечить послепродажную поддержку" style="rounded=1;whiteSpace=wrap;html=1;arcSize=40;fontColor=#000000;fillColor=#ffffc0;strokeColor=#ff0000;" parent="0aA-av67z8XiDm5z57Wx-23" vertex="1">
          <mxGeometry x="75" y="1220" width="170" height="40" as="geometry" />
        </mxCell>
        <mxCell id="0aA-av67z8XiDm5z57Wx-29" value="Логистика и доставка" style="swimlane;startSize=20;whiteSpace=wrap;html=1;" parent="1" vertex="1">
          <mxGeometry x="310" y="250" width="290" height="1480" as="geometry" />
        </mxCell>
        <mxCell id="0aA-av67z8XiDm5z57Wx-30" style="edgeStyle=orthogonalEdgeStyle;rounded=0;orthogonalLoop=1;jettySize=auto;html=1;entryX=0.5;entryY=0;entryDx=0;entryDy=0;" parent="0aA-av67z8XiDm5z57Wx-29" source="0aA-av67z8XiDm5z57Wx-31" target="0aA-av67z8XiDm5z57Wx-33" edge="1">
          <mxGeometry relative="1" as="geometry" />
        </mxCell>
        <mxCell id="0aA-av67z8XiDm5z57Wx-31" value="Создать план доставки" style="rounded=1;whiteSpace=wrap;html=1;arcSize=40;fontColor=#000000;fillColor=#ffffc0;strokeColor=#ff0000;" parent="0aA-av67z8XiDm5z57Wx-29" vertex="1">
          <mxGeometry x="80" y="605" width="140" height="40" as="geometry" />
        </mxCell>
        <mxCell id="0aA-av67z8XiDm5z57Wx-32" style="edgeStyle=orthogonalEdgeStyle;rounded=0;orthogonalLoop=1;jettySize=auto;html=1;" parent="0aA-av67z8XiDm5z57Wx-29" source="0aA-av67z8XiDm5z57Wx-33" target="0aA-av67z8XiDm5z57Wx-35" edge="1">
          <mxGeometry relative="1" as="geometry" />
        </mxCell>
        <mxCell id="0aA-av67z8XiDm5z57Wx-33" value="Определить время доставки" style="rounded=1;whiteSpace=wrap;html=1;arcSize=40;fontColor=#000000;fillColor=#ffffc0;strokeColor=#ff0000;" parent="0aA-av67z8XiDm5z57Wx-29" vertex="1">
          <mxGeometry x="80" y="680" width="140" height="40" as="geometry" />
        </mxCell>
        <mxCell id="0aA-av67z8XiDm5z57Wx-34" style="edgeStyle=orthogonalEdgeStyle;rounded=0;orthogonalLoop=1;jettySize=auto;html=1;entryX=0.5;entryY=0;entryDx=0;entryDy=0;" parent="0aA-av67z8XiDm5z57Wx-29" source="0aA-av67z8XiDm5z57Wx-35" target="0aA-av67z8XiDm5z57Wx-37" edge="1">
          <mxGeometry relative="1" as="geometry" />
        </mxCell>
        <mxCell id="0aA-av67z8XiDm5z57Wx-35" value="Уведомить клиента о времени доставки" style="rounded=1;whiteSpace=wrap;html=1;arcSize=40;fontColor=#000000;fillColor=#ffffc0;strokeColor=#ff0000;" parent="0aA-av67z8XiDm5z57Wx-29" vertex="1">
          <mxGeometry x="80" y="760" width="140" height="40" as="geometry" />
        </mxCell>
        <mxCell id="0aA-av67z8XiDm5z57Wx-36" style="edgeStyle=orthogonalEdgeStyle;rounded=0;orthogonalLoop=1;jettySize=auto;html=1;" parent="0aA-av67z8XiDm5z57Wx-29" source="0aA-av67z8XiDm5z57Wx-37" target="0aA-av67z8XiDm5z57Wx-39" edge="1">
          <mxGeometry relative="1" as="geometry" />
        </mxCell>
        <mxCell id="0aA-av67z8XiDm5z57Wx-37" value="Назначить курьера" style="rounded=1;whiteSpace=wrap;html=1;arcSize=40;fontColor=#000000;fillColor=#ffffc0;strokeColor=#ff0000;" parent="0aA-av67z8XiDm5z57Wx-29" vertex="1">
          <mxGeometry x="80" y="840" width="140" height="40" as="geometry" />
        </mxCell>
        <mxCell id="0aA-av67z8XiDm5z57Wx-38" style="edgeStyle=orthogonalEdgeStyle;rounded=0;orthogonalLoop=1;jettySize=auto;html=1;" parent="0aA-av67z8XiDm5z57Wx-29" source="0aA-av67z8XiDm5z57Wx-39" target="0aA-av67z8XiDm5z57Wx-40" edge="1">
          <mxGeometry relative="1" as="geometry" />
        </mxCell>
        <mxCell id="0aA-av67z8XiDm5z57Wx-39" value="Отправить товар" style="rounded=1;whiteSpace=wrap;html=1;arcSize=40;fontColor=#000000;fillColor=#ffffc0;strokeColor=#ff0000;" parent="0aA-av67z8XiDm5z57Wx-29" vertex="1">
          <mxGeometry x="80" y="919" width="140" height="40" as="geometry" />
        </mxCell>
        <mxCell id="0aA-av67z8XiDm5z57Wx-40" value="Отслеживать доставку" style="rounded=1;whiteSpace=wrap;html=1;arcSize=40;fontColor=#000000;fillColor=#ffffc0;strokeColor=#ff0000;" parent="0aA-av67z8XiDm5z57Wx-29" vertex="1">
          <mxGeometry x="80" y="1000" width="140" height="40" as="geometry" />
        </mxCell>
        <mxCell id="0aA-av67z8XiDm5z57Wx-41" value="Обработка платежей" style="swimlane;startSize=20;whiteSpace=wrap;html=1;" parent="1" vertex="1">
          <mxGeometry x="20" y="250" width="290" height="1480" as="geometry" />
        </mxCell>
        <mxCell id="0aA-av67z8XiDm5z57Wx-42" style="edgeStyle=orthogonalEdgeStyle;rounded=0;orthogonalLoop=1;jettySize=auto;html=1;entryX=0.5;entryY=0;entryDx=0;entryDy=0;" parent="0aA-av67z8XiDm5z57Wx-41" source="0aA-av67z8XiDm5z57Wx-43" target="0aA-av67z8XiDm5z57Wx-45" edge="1">
          <mxGeometry relative="1" as="geometry" />
        </mxCell>
        <mxCell id="0aA-av67z8XiDm5z57Wx-43" value="Проверить информацию о платеже" style="rounded=1;whiteSpace=wrap;html=1;arcSize=40;fontColor=#000000;fillColor=#ffffc0;strokeColor=#ff0000;" parent="0aA-av67z8XiDm5z57Wx-41" vertex="1">
          <mxGeometry x="100" y="390" width="140" height="40" as="geometry" />
        </mxCell>
        <mxCell id="0aA-av67z8XiDm5z57Wx-44" style="edgeStyle=orthogonalEdgeStyle;rounded=0;orthogonalLoop=1;jettySize=auto;html=1;" parent="0aA-av67z8XiDm5z57Wx-41" source="0aA-av67z8XiDm5z57Wx-45" target="0aA-av67z8XiDm5z57Wx-47" edge="1">
          <mxGeometry relative="1" as="geometry" />
        </mxCell>
        <mxCell id="0aA-av67z8XiDm5z57Wx-45" value="Инициализировать платеж" style="rounded=1;whiteSpace=wrap;html=1;arcSize=40;fontColor=#000000;fillColor=#ffffc0;strokeColor=#ff0000;" parent="0aA-av67z8XiDm5z57Wx-41" vertex="1">
          <mxGeometry x="100" y="460" width="140" height="40" as="geometry" />
        </mxCell>
        <mxCell id="0aA-av67z8XiDm5z57Wx-46" style="edgeStyle=orthogonalEdgeStyle;rounded=0;orthogonalLoop=1;jettySize=auto;html=1;" parent="0aA-av67z8XiDm5z57Wx-41" source="0aA-av67z8XiDm5z57Wx-47" target="0aA-av67z8XiDm5z57Wx-49" edge="1">
          <mxGeometry relative="1" as="geometry" />
        </mxCell>
        <mxCell id="0aA-av67z8XiDm5z57Wx-47" value="Отправить запрос на оплату в банк" style="rounded=1;whiteSpace=wrap;html=1;arcSize=40;fontColor=#000000;fillColor=#ffffc0;strokeColor=#ff0000;" parent="0aA-av67z8XiDm5z57Wx-41" vertex="1">
          <mxGeometry x="100" y="530" width="140" height="40" as="geometry" />
        </mxCell>
        <mxCell id="0aA-av67z8XiDm5z57Wx-48" style="edgeStyle=orthogonalEdgeStyle;rounded=0;orthogonalLoop=1;jettySize=auto;html=1;" parent="0aA-av67z8XiDm5z57Wx-41" source="0aA-av67z8XiDm5z57Wx-49" target="0aA-av67z8XiDm5z57Wx-52" edge="1">
          <mxGeometry relative="1" as="geometry" />
        </mxCell>
        <mxCell id="0aA-av67z8XiDm5z57Wx-49" value="Оплата успешна?" style="rhombus;whiteSpace=wrap;html=1;fontColor=#000000;fillColor=#ffffc0;strokeColor=#ff0000;" parent="0aA-av67z8XiDm5z57Wx-41" vertex="1">
          <mxGeometry x="120" y="600" width="100" height="50" as="geometry" />
        </mxCell>
        <mxCell id="0aA-av67z8XiDm5z57Wx-50" value="да" style="text;html=1;align=center;verticalAlign=middle;resizable=0;points=[];autosize=1;strokeColor=none;fillColor=none;" parent="0aA-av67z8XiDm5z57Wx-41" vertex="1">
          <mxGeometry x="200" y="600" width="40" height="30" as="geometry" />
        </mxCell>
        <mxCell id="0aA-av67z8XiDm5z57Wx-51" style="edgeStyle=orthogonalEdgeStyle;rounded=0;orthogonalLoop=1;jettySize=auto;html=1;entryX=0.5;entryY=0;entryDx=0;entryDy=0;" parent="0aA-av67z8XiDm5z57Wx-41" source="0aA-av67z8XiDm5z57Wx-52" target="0aA-av67z8XiDm5z57Wx-55" edge="1">
          <mxGeometry relative="1" as="geometry" />
        </mxCell>
        <mxCell id="0aA-av67z8XiDm5z57Wx-52" value="Зафиксировать ошибку оплаты" style="rounded=1;whiteSpace=wrap;html=1;arcSize=40;fontColor=#000000;fillColor=#ffffc0;strokeColor=#ff0000;" parent="0aA-av67z8XiDm5z57Wx-41" vertex="1">
          <mxGeometry x="100" y="690" width="140" height="40" as="geometry" />
        </mxCell>
        <mxCell id="0aA-av67z8XiDm5z57Wx-53" value="нет" style="text;html=1;align=center;verticalAlign=middle;resizable=0;points=[];autosize=1;strokeColor=none;fillColor=none;" parent="0aA-av67z8XiDm5z57Wx-41" vertex="1">
          <mxGeometry x="130" y="650" width="40" height="30" as="geometry" />
        </mxCell>
        <mxCell id="0aA-av67z8XiDm5z57Wx-54" style="edgeStyle=orthogonalEdgeStyle;rounded=0;orthogonalLoop=1;jettySize=auto;html=1;entryX=0.5;entryY=0;entryDx=0;entryDy=0;" parent="0aA-av67z8XiDm5z57Wx-41" source="0aA-av67z8XiDm5z57Wx-55" target="0aA-av67z8XiDm5z57Wx-57" edge="1">
          <mxGeometry relative="1" as="geometry" />
        </mxCell>
        <mxCell id="0aA-av67z8XiDm5z57Wx-55" value="Уведомить клиента о неудаче" style="rounded=1;whiteSpace=wrap;html=1;arcSize=40;fontColor=#000000;fillColor=#ffffc0;strokeColor=#ff0000;" parent="0aA-av67z8XiDm5z57Wx-41" vertex="1">
          <mxGeometry x="100" y="760" width="140" height="40" as="geometry" />
        </mxCell>
        <mxCell id="0aA-av67z8XiDm5z57Wx-56" style="edgeStyle=orthogonalEdgeStyle;rounded=0;orthogonalLoop=1;jettySize=auto;html=1;entryX=0;entryY=0.5;entryDx=0;entryDy=0;exitX=0.5;exitY=1;exitDx=0;exitDy=0;" parent="0aA-av67z8XiDm5z57Wx-41" source="0aA-av67z8XiDm5z57Wx-57" target="0aA-av67z8XiDm5z57Wx-45" edge="1">
          <mxGeometry relative="1" as="geometry">
            <Array as="points">
              <mxPoint x="170" y="900" />
              <mxPoint x="80" y="900" />
              <mxPoint x="80" y="480" />
            </Array>
          </mxGeometry>
        </mxCell>
        <mxCell id="0aA-av67z8XiDm5z57Wx-57" value="Запросить повторный платеж" style="rounded=1;whiteSpace=wrap;html=1;arcSize=40;fontColor=#000000;fillColor=#ffffc0;strokeColor=#ff0000;" parent="0aA-av67z8XiDm5z57Wx-41" vertex="1">
          <mxGeometry x="100" y="830" width="140" height="40" as="geometry" />
        </mxCell>
        <mxCell id="0aA-av67z8XiDm5z57Wx-58" style="edgeStyle=orthogonalEdgeStyle;rounded=0;orthogonalLoop=1;jettySize=auto;html=1;entryX=0;entryY=0.5;entryDx=0;entryDy=0;" parent="1" source="0aA-av67z8XiDm5z57Wx-19" target="0aA-av67z8XiDm5z57Wx-43" edge="1">
          <mxGeometry relative="1" as="geometry" />
        </mxCell>
        <mxCell id="0aA-av67z8XiDm5z57Wx-59" style="edgeStyle=orthogonalEdgeStyle;rounded=0;orthogonalLoop=1;jettySize=auto;html=1;" parent="1" source="0aA-av67z8XiDm5z57Wx-49" target="0aA-av67z8XiDm5z57Wx-31" edge="1">
          <mxGeometry relative="1" as="geometry">
            <mxPoint x="490" y="1050" as="targetPoint" />
          </mxGeometry>
        </mxCell>
        <mxCell id="0aA-av67z8XiDm5z57Wx-60" style="edgeStyle=orthogonalEdgeStyle;rounded=0;orthogonalLoop=1;jettySize=auto;html=1;" parent="1" source="0aA-av67z8XiDm5z57Wx-40" target="0aA-av67z8XiDm5z57Wx-25" edge="1">
          <mxGeometry relative="1" as="geometry" />
        </mxCell>
        <mxCell id="0aA-av67z8XiDm5z57Wx-61" style="edgeStyle=orthogonalEdgeStyle;rounded=0;orthogonalLoop=1;jettySize=auto;html=1;entryX=0.75;entryY=0.5;entryDx=0;entryDy=0;entryPerimeter=0;" parent="1" source="0aA-av67z8XiDm5z57Wx-28" target="0aA-av67z8XiDm5z57Wx-21" edge="1">
          <mxGeometry relative="1" as="geometry">
            <mxPoint x="-130" y="1620" as="targetPoint" />
            <Array as="points">
              <mxPoint x="760" y="1590" />
              <mxPoint x="-140" y="1590" />
            </Array>
          </mxGeometry>
        </mxCell>
        <UserObject label="" plantUmlData="{&#xa;  &quot;data&quot;: &quot;@startuml\nskinparam monochrome true\n\n|Пользователь|\n:Регистрация или Вход;\n-&gt; |Система|\n\n|Система|\n:Проверка учетных данных;\nif (Данные верны?) then (да)\n  :Создание профиля студента;\n  -&gt; |Студент|\nelse (нет)\n  :Уведомить пользователя о неверных данных;\n  -&gt; |Пользователь|\n  :Повторить попытку входа;\n  stop\nendif\n\n|Студент|\n:Начать обучающий модуль;\n:Пройти уроки;\n:Запросить тестирование;\n-&gt; |Система|\n\n|Система|\n:Назначить тест студенту;\n-&gt; |База данных|\n\n|База данных|\n:Сохранить назначение теста;\n-&gt; |Студент|\n\n|Студент|\n:Пройти тест;\n:Отправить тест;\n-&gt; |Система|\n\n|Система|\n:Автоматическая проверка теста;\nif (Баллы выше порога?) then (да)\n  :Отметить как «Пройдено»;\n  -&gt; |Преподаватель|\nelse (нет)\n  :Отметить как «Не пройдено»;\n  :Уведомить студента о неудаче;\n  -&gt; |Студент|\n  :Просмотреть обратную связь;\n  :Повторное изучение материала;\n  stop\nendif\n\n|Преподаватель|\n:Проверить результаты теста;\n:Предоставить подробную обратную связь;\nif (Нужна дополнительная поддержка?) then (да)\n  :Назначить сессию поддержки;\n  -&gt; |Студент|\nelse (нет)\n  :Одобрить прогресс;\n  -&gt; |Система|\nendif\n\n|Студент|\n:Посетить сессию поддержки;\n:Повторное прохождение теста;\n-&gt; |Система|\n\n|Система|\n:Обновить прогресс студента;\n-&gt; |База данных|\n\n|База данных|\n:Сохранить обновленный прогресс;\n-&gt; |Система|\n\n|Система|\n:Сформировать итоговые результаты;\n:Уведомить студента о завершении;\n-&gt; |Студент|\n\n|Студент|\n:Получить итоговые результаты;\n:Просмотреть сертификат;\nstop\n\n@enduml\n&quot;,&#xa;  &quot;format&quot;: &quot;svg&quot;&#xa;}" id="0aA-av67z8XiDm5z57Wx-62">
          <mxCell style="shape=image;noLabel=1;verticalAlign=top;aspect=fixed;imageAspect=0;image=data:image/svg+xml,PHN2ZyB4bWxucz0iaHR0cDovL3d3dy53My5vcmcvMjAwMC9zdmciIHhtbG5zOnhsaW5rPSJodHRwOi8vd3d3LnczLm9yZy8xOTk5L3hsaW5rIiBjb250ZW50U3R5bGVUeXBlPSJ0ZXh0L2NzcyIgZGF0YS1kaWFncmFtLXR5cGU9IkFDVElWSVRZIiBoZWlnaHQ9IjE2NTNweCIgcHJlc2VydmVBc3BlY3RSYXRpbz0ibm9uZSIgc3R5bGU9IndpZHRoOjkwNHB4O2hlaWdodDoxNjUzcHg7YmFja2dyb3VuZDojRkZGRkZGOyIgdmVyc2lvbj0iMS4xIiB2aWV3Qm94PSIwIDAgOTA0IDE2NTMiIHdpZHRoPSI5MDRweCIgem9vbUFuZFBhbj0ibWFnbmlmeSI+PGRlZnMvPjxnPjxyZWN0IGZpbGw9Im5vbmUiIGhlaWdodD0iMTkuMjY1NiIgc3R5bGU9InN0cm9rZTpub25lO3N0cm9rZS13aWR0aDoxOyIgd2lkdGg9Ijg3MSIgeD0iMTUiIHk9IjExIi8+PHJlY3QgZmlsbD0iI0YxRjFGMSIgaGVpZ2h0PSIzMi44NDM4IiByeD0iMTIuNSIgcnk9IjEyLjUiIHN0eWxlPSJzdHJva2U6IzE4MTgxODtzdHJva2Utd2lkdGg6MC41OyIgd2lkdGg9IjE0MCIgeD0iMzYiIHk9IjM1LjI2NTYiLz48dGV4dCBmaWxsPSIjMDAwMDAwIiBmb250LWZhbWlseT0ic2Fucy1zZXJpZiIgZm9udC1zaXplPSIxMiIgbGVuZ3RoQWRqdXN0PSJzcGFjaW5nIiB0ZXh0TGVuZ3RoPSIxMjAiIHg9IjQ2IiB5PSI1Ni42MDk0Ij4mIzEwNTY7JiMxMDc3OyYjMTA3NTsmIzEwODA7JiMxMDg5OyYjMTA5MDsmIzEwODg7JiMxMDcyOyYjMTA5NDsmIzEwODA7JiMxMTAzOyAmIzEwODA7JiMxMDgzOyYjMTA4MDsgJiMxMDQyOyYjMTA5MzsmIzEwODY7JiMxMDc2OzwvdGV4dD48cmVjdCBmaWxsPSIjRjFGMUYxIiBoZWlnaHQ9IjMyLjg0MzgiIHJ4PSIxMi41IiByeT0iMTIuNSIgc3R5bGU9InN0cm9rZTojMTgxODE4O3N0cm9rZS13aWR0aDowLjU7IiB3aWR0aD0iMTcwIiB4PSIyMSIgeT0iMTk2LjU3ODEiLz48dGV4dCBmaWxsPSIjMDAwMDAwIiBmb250LWZhbWlseT0ic2Fucy1zZXJpZiIgZm9udC1zaXplPSIxMiIgbGVuZ3RoQWRqdXN0PSJzcGFjaW5nIiB0ZXh0TGVuZ3RoPSIxNTAiIHg9IjMxIiB5PSIyMTcuOTIxOSI+JiMxMDU3OyYjMTA4NjsmIzEwNzk7JiMxMDc2OyYjMTA3MjsmIzEwODU7JiMxMDgwOyYjMTA3NzsgJiMxMDg3OyYjMTA4ODsmIzEwODY7JiMxMDkyOyYjMTA4MDsmIzEwODM7JiMxMTAzOyAmIzEwODk7JiMxMDkwOyYjMTA5MTsmIzEwNzY7JiMxMDc3OyYjMTA4NTsmIzEwOTA7JiMxMDcyOzwvdGV4dD48ZWxsaXBzZSBjeD0iMTA2IiBjeT0iMjkzLjM0MzgiIGZpbGw9Im5vbmUiIHJ4PSIxMSIgcnk9IjExIiBzdHlsZT0ic3Ryb2tlOiMyMjIyMjI7c3Ryb2tlLXdpZHRoOjE7Ii8+PGVsbGlwc2UgY3g9IjEwNiIgY3k9IjI5My4zNDM4IiBmaWxsPSIjMjIyMjIyIiByeD0iNiIgcnk9IjYiIHN0eWxlPSJzdHJva2U6IzIyMjIyMjtzdHJva2Utd2lkdGg6MTsiLz48cG9seWdvbiBmaWxsPSIjRjFGMUYxIiBwb2ludHM9IjcwLjI1LDE0OC41NzgxLDE0MS43NSwxNDguNTc4MSwxNTMuNzUsMTYwLjU3ODEsMTQxLjc1LDE3Mi41NzgxLDcwLjI1LDE3Mi41NzgxLDU4LjI1LDE2MC41NzgxLDcwLjI1LDE0OC41NzgxIiBzdHlsZT0ic3Ryb2tlOiMxODE4MTg7c3Ryb2tlLXdpZHRoOjAuNTsiLz48dGV4dCBmaWxsPSIjMDAwMDAwIiBmb250LWZhbWlseT0ic2Fucy1zZXJpZiIgZm9udC1zaXplPSIxMSIgbGVuZ3RoQWRqdXN0PSJzcGFjaW5nIiB0ZXh0TGVuZ3RoPSIxMSIgeD0iMTEwIiB5PSIxODIuOTc2NiI+JiMxMDc2OyYjMTA3Mjs8L3RleHQ+PHRleHQgZmlsbD0iIzAwMDAwMCIgZm9udC1mYW1pbHk9InNhbnMtc2VyaWYiIGZvbnQtc2l6ZT0iMTEiIGxlbmd0aEFkanVzdD0ic3BhY2luZyIgdGV4dExlbmd0aD0iNzEuNSIgeD0iNzAuMjUiIHk9IjE2NS4wODk4Ij4mIzEwNDQ7JiMxMDcyOyYjMTA4NTsmIzEwODU7JiMxMDk5OyYjMTA3NzsgJiMxMDc0OyYjMTA3NzsmIzEwODg7JiMxMDg1OyYjMTA5OTs/PC90ZXh0PjxsaW5lIHN0eWxlPSJzdHJva2U6IzAwMDAwMDtzdHJva2Utd2lkdGg6MS41OyIgeDE9IjE1IiB4Mj0iMTUiIHkxPSIxMSIgeTI9IjE2MzcuOTgwNSIvPjxyZWN0IGZpbGw9IiNGMUYxRjEiIGhlaWdodD0iMzIuODQzOCIgcng9IjEyLjUiIHJ5PSIxMi41IiBzdHlsZT0ic3Ryb2tlOiMxODE4MTg7c3Ryb2tlLXdpZHRoOjAuNTsiIHdpZHRoPSIxNTgiIHg9IjI3OCIgeT0iMzQ2LjM0MzgiLz48dGV4dCBmaWxsPSIjMDAwMDAwIiBmb250LWZhbWlseT0ic2Fucy1zZXJpZiIgZm9udC1zaXplPSIxMiIgbGVuZ3RoQWRqdXN0PSJzcGFjaW5nIiB0ZXh0TGVuZ3RoPSIxMzgiIHg9IjI4OCIgeT0iMzY3LjY4NzUiPiYjMTA1MzsmIzEwNzI7JiMxMDk1OyYjMTA3MjsmIzEwOTA7JiMxMTAwOyAmIzEwODY7JiMxMDczOyYjMTA5MTsmIzEwOTU7JiMxMDcyOyYjMTEwMjsmIzEwOTc7JiMxMDgwOyYjMTA4MTsgJiMxMDg0OyYjMTA4NjsmIzEwNzY7JiMxMDkxOyYjMTA4MzsmIzExMDA7PC90ZXh0PjxyZWN0IGZpbGw9IiNGMUYxRjEiIGhlaWdodD0iMzIuODQzOCIgcng9IjEyLjUiIHJ5PSIxMi41IiBzdHlsZT0ic3Ryb2tlOiMxODE4MTg7c3Ryb2tlLXdpZHRoOjAuNTsiIHdpZHRoPSI5MiIgeD0iMzExIiB5PSIzOTkuMTg3NSIvPjx0ZXh0IGZpbGw9IiMwMDAwMDAiIGZvbnQtZmFtaWx5PSJzYW5zLXNlcmlmIiBmb250LXNpemU9IjEyIiBsZW5ndGhBZGp1c3Q9InNwYWNpbmciIHRleHRMZW5ndGg9IjcyIiB4PSIzMjEiIHk9IjQyMC41MzEzIj4mIzEwNTU7JiMxMDg4OyYjMTA4NjsmIzEwODE7JiMxMDkwOyYjMTA4MDsgJiMxMDkxOyYjMTA4ODsmIzEwODY7JiMxMDgyOyYjMTA4MDs8L3RleHQ+PHJlY3QgZmlsbD0iI0YxRjFGMSIgaGVpZ2h0PSIzMi44NDM4IiByeD0iMTIuNSIgcnk9IjEyLjUiIHN0eWxlPSJzdHJva2U6IzE4MTgxODtzdHJva2Utd2lkdGg6MC41OyIgd2lkdGg9IjE1MiIgeD0iMjgxIiB5PSI0NTIuMDMxMyIvPjx0ZXh0IGZpbGw9IiMwMDAwMDAiIGZvbnQtZmFtaWx5PSJzYW5zLXNlcmlmIiBmb250LXNpemU9IjEyIiBsZW5ndGhBZGp1c3Q9InNwYWNpbmciIHRleHRMZW5ndGg9IjEzMiIgeD0iMjkxIiB5PSI0NzMuMzc1Ij4mIzEwNDc7JiMxMDcyOyYjMTA4NzsmIzEwODg7JiMxMDg2OyYjMTA4OTsmIzEwODA7JiMxMDkwOyYjMTEwMDsgJiMxMDkwOyYjMTA3NzsmIzEwODk7JiMxMDkwOyYjMTA4MDsmIzEwODg7JiMxMDg2OyYjMTA3NDsmIzEwNzI7JiMxMDg1OyYjMTA4MDsmIzEwNzc7PC90ZXh0PjxyZWN0IGZpbGw9IiNGMUYxRjEiIGhlaWdodD0iMzIuODQzOCIgcng9IjEyLjUiIHJ5PSIxMi41IiBzdHlsZT0ic3Ryb2tlOiMxODE4MTg7c3Ryb2tlLXdpZHRoOjAuNTsiIHdpZHRoPSIxMDQiIHg9IjMwNSIgeT0iNTY1LjM0MzgiLz48dGV4dCBmaWxsPSIjMDAwMDAwIiBmb250LWZhbWlseT0ic2Fucy1zZXJpZiIgZm9udC1zaXplPSIxMiIgbGVuZ3RoQWRqdXN0PSJzcGFjaW5nIiB0ZXh0TGVuZ3RoPSI4NCIgeD0iMzE1IiB5PSI1ODYuNjg3NSI+JiMxMDU0OyYjMTA5MDsmIzEwODc7JiMxMDg4OyYjMTA3MjsmIzEwNzQ7JiMxMDgwOyYjMTA5MDsmIzExMDA7ICYjMTA5MDsmIzEwNzc7JiMxMDg5OyYjMTA5MDs8L3RleHQ+PHJlY3QgZmlsbD0iI0YxRjFGMSIgaGVpZ2h0PSIzMi44NDM4IiByeD0iMTIuNSIgcnk9IjEyLjUiIHN0eWxlPSJzdHJva2U6IzE4MTgxODtzdHJva2Utd2lkdGg6MC41OyIgd2lkdGg9IjE1OCIgeD0iMjc4IiB5PSI3MjYuNjU2MyIvPjx0ZXh0IGZpbGw9IiMwMDAwMDAiIGZvbnQtZmFtaWx5PSJzYW5zLXNlcmlmIiBmb250LXNpemU9IjEyIiBsZW5ndGhBZGp1c3Q9InNwYWNpbmciIHRleHRMZW5ndGg9IjEzOCIgeD0iMjg4IiB5PSI3NDgiPiYjMTA1NDsmIzEwOTA7JiMxMDg0OyYjMTA3NzsmIzEwOTA7JiMxMDgwOyYjMTA5MDsmIzExMDA7ICYjMTA4MjsmIzEwNzI7JiMxMDgyOyAmIzE3MTsmIzEwNTU7JiMxMDg4OyYjMTA4NjsmIzEwODE7JiMxMDc2OyYjMTA3NzsmIzEwODU7JiMxMDg2OyYjMTg3OzwvdGV4dD48cmVjdCBmaWxsPSIjRjFGMUYxIiBoZWlnaHQ9IjMyLjg0MzgiIHJ4PSIxMi41IiByeT0iMTIuNSIgc3R5bGU9InN0cm9rZTojMTgxODE4O3N0cm9rZS13aWR0aDowLjU7IiB3aWR0aD0iMTg4IiB4PSIyNjMiIHk9IjgyNC4xOTUzIi8+PHRleHQgZmlsbD0iIzAwMDAwMCIgZm9udC1mYW1pbHk9InNhbnMtc2VyaWYiIGZvbnQtc2l6ZT0iMTIiIGxlbmd0aEFkanVzdD0ic3BhY2luZyIgdGV4dExlbmd0aD0iMTY4IiB4PSIyNzMiIHk9Ijg0NS41MzkxIj4mIzEwNTk7JiMxMDc0OyYjMTA3NzsmIzEwNzY7JiMxMDg2OyYjMTA4NDsmIzEwODA7JiMxMDkwOyYjMTEwMDsgJiMxMDg5OyYjMTA5MDsmIzEwOTE7JiMxMDc2OyYjMTA3NzsmIzEwODU7JiMxMDkwOyYjMTA3MjsgJiMxMDg2OyAmIzEwODU7JiMxMDc3OyYjMTA5MTsmIzEwNzY7JiMxMDcyOyYjMTA5NTsmIzEwNzc7PC90ZXh0PjxyZWN0IGZpbGw9IiNGMUYxRjEiIGhlaWdodD0iMzIuODQzOCIgcng9IjEyLjUiIHJ5PSIxMi41IiBzdHlsZT0ic3Ryb2tlOiMxODE4MTg7c3Ryb2tlLXdpZHRoOjAuNTsiIHdpZHRoPSIxODgiIHg9IjI2MyIgeT0iOTE4Ljg5NDUiLz48dGV4dCBmaWxsPSIjMDAwMDAwIiBmb250LWZhbWlseT0ic2Fucy1zZXJpZiIgZm9udC1zaXplPSIxMiIgbGVuZ3RoQWRqdXN0PSJzcGFjaW5nIiB0ZXh0TGVuZ3RoPSIxNjgiIHg9IjI3MyIgeT0iOTQwLjIzODMiPiYjMTA1NTsmIzEwODY7JiMxMDc0OyYjMTA5MDsmIzEwODY7JiMxMDg4OyYjMTA4NTsmIzEwODY7JiMxMDc3OyAmIzEwODA7JiMxMDc5OyYjMTA5MTsmIzEwOTU7JiMxMDc3OyYjMTA4NTsmIzEwODA7JiMxMDc3OyAmIzEwODQ7JiMxMDcyOyYjMTA5MDsmIzEwNzc7JiMxMDg4OyYjMTA4MDsmIzEwNzI7JiMxMDgzOyYjMTA3Mjs8L3RleHQ+PGVsbGlwc2UgY3g9IjM1NyIgY3k9Ijk4Mi43MzgzIiBmaWxsPSJub25lIiByeD0iMTEiIHJ5PSIxMSIgc3R5bGU9InN0cm9rZTojMjIyMjIyO3N0cm9rZS13aWR0aDoxOyIvPjxlbGxpcHNlIGN4PSIzNTciIGN5PSI5ODIuNzM4MyIgZmlsbD0iIzIyMjIyMiIgcng9IjYiIHJ5PSI2IiBzdHlsZT0ic3Ryb2tlOiMyMjIyMjI7c3Ryb2tlLXdpZHRoOjE7Ii8+PHBvbHlnb24gZmlsbD0iI0YxRjFGMSIgcG9pbnRzPSIzMDcuNSw2NzguNjU2Myw0MDYuNSw2NzguNjU2Myw0MTguNSw2OTAuNjU2Myw0MDYuNSw3MDIuNjU2MywzMDcuNSw3MDIuNjU2MywyOTUuNSw2OTAuNjU2MywzMDcuNSw2NzguNjU2MyIgc3R5bGU9InN0cm9rZTojMTgxODE4O3N0cm9rZS13aWR0aDowLjU7Ii8+PHRleHQgZmlsbD0iIzAwMDAwMCIgZm9udC1mYW1pbHk9InNhbnMtc2VyaWYiIGZvbnQtc2l6ZT0iMTEiIGxlbmd0aEFkanVzdD0ic3BhY2luZyIgdGV4dExlbmd0aD0iMTEiIHg9IjM2MSIgeT0iNzEzLjA1NDciPiYjMTA3NjsmIzEwNzI7PC90ZXh0Pjx0ZXh0IGZpbGw9IiMwMDAwMDAiIGZvbnQtZmFtaWx5PSJzYW5zLXNlcmlmIiBmb250LXNpemU9IjExIiBsZW5ndGhBZGp1c3Q9InNwYWNpbmciIHRleHRMZW5ndGg9Ijk5IiB4PSIzMDcuNSIgeT0iNjk1LjE2OCI+JiMxMDQxOyYjMTA3MjsmIzEwODM7JiMxMDgzOyYjMTA5OTsgJiMxMDc0OyYjMTA5OTsmIzEwOTY7JiMxMDc3OyAmIzEwODc7JiMxMDg2OyYjMTA4ODsmIzEwODY7JiMxMDc1OyYjMTA3Mjs/PC90ZXh0PjxsaW5lIHN0eWxlPSJzdHJva2U6IzAwMDAwMDtzdHJva2Utd2lkdGg6MS41OyIgeDE9IjI1NyIgeDI9IjI1NyIgeTE9IjExIiB5Mj0iMTYzNy45ODA1Ii8+PHJlY3QgZmlsbD0iI0YxRjFGMSIgaGVpZ2h0PSIzMi44NDM4IiByeD0iMTIuNSIgcnk9IjEyLjUiIHN0eWxlPSJzdHJva2U6IzE4MTgxODtzdHJva2Utd2lkdGg6MC41OyIgd2lkdGg9IjE3NiIgeD0iNTgwIiB5PSIxMDM1LjczODMiLz48dGV4dCBmaWxsPSIjMDAwMDAwIiBmb250LWZhbWlseT0ic2Fucy1zZXJpZiIgZm9udC1zaXplPSIxMiIgbGVuZ3RoQWRqdXN0PSJzcGFjaW5nIiB0ZXh0TGVuZ3RoPSIxNTYiIHg9IjU5MCIgeT0iMTA1Ny4wODIiPiYjMTA1NTsmIzEwODg7JiMxMDg2OyYjMTA3NDsmIzEwNzc7JiMxMDg4OyYjMTA4MDsmIzEwOTA7JiMxMTAwOyAmIzEwODg7JiMxMDc3OyYjMTA3OTsmIzEwOTE7JiMxMDgzOyYjMTEwMDsmIzEwOTA7JiMxMDcyOyYjMTA5MDsmIzEwOTk7ICYjMTA5MDsmIzEwNzc7JiMxMDg5OyYjMTA5MDsmIzEwNzI7PC90ZXh0PjxyZWN0IGZpbGw9IiNGMUYxRjEiIGhlaWdodD0iMzIuODQzOCIgcng9IjEyLjUiIHJ5PSIxMi41IiBzdHlsZT0ic3Ryb2tlOiMxODE4MTg7c3Ryb2tlLXdpZHRoOjAuNTsiIHdpZHRoPSIyNDIiIHg9IjU0NyIgeT0iMTA4OC41ODIiLz48dGV4dCBmaWxsPSIjMDAwMDAwIiBmb250LWZhbWlseT0ic2Fucy1zZXJpZiIgZm9udC1zaXplPSIxMiIgbGVuZ3RoQWRqdXN0PSJzcGFjaW5nIiB0ZXh0TGVuZ3RoPSIyMjIiIHg9IjU1NyIgeT0iMTEwOS45MjU4Ij4mIzEwNTU7JiMxMDg4OyYjMTA3NzsmIzEwNzY7JiMxMDg2OyYjMTA4OTsmIzEwOTA7JiMxMDcyOyYjMTA3NDsmIzEwODA7JiMxMDkwOyYjMTEwMDsgJiMxMDg3OyYjMTA4NjsmIzEwNzY7JiMxMDg4OyYjMTA4NjsmIzEwNzM7JiMxMDg1OyYjMTA5MTsmIzExMDI7ICYjMTA4NjsmIzEwNzM7JiMxMDg4OyYjMTA3MjsmIzEwOTA7JiMxMDg1OyYjMTA5MTsmIzExMDI7ICYjMTA4OTsmIzEwNzQ7JiMxMTAzOyYjMTA3OTsmIzExMDA7PC90ZXh0PjxyZWN0IGZpbGw9IiNGMUYxRjEiIGhlaWdodD0iMzIuODQzOCIgcng9IjEyLjUiIHJ5PSIxMi41IiBzdHlsZT0ic3Ryb2tlOiMxODE4MTg7c3Ryb2tlLXdpZHRoOjAuNTsiIHdpZHRoPSIxNzYiIHg9IjU4MCIgeT0iMTE4OS40MjU4Ii8+PHRleHQgZmlsbD0iIzAwMDAwMCIgZm9udC1mYW1pbHk9InNhbnMtc2VyaWYiIGZvbnQtc2l6ZT0iMTIiIGxlbmd0aEFkanVzdD0ic3BhY2luZyIgdGV4dExlbmd0aD0iMTU2IiB4PSI1OTAiIHk9IjEyMTAuNzY5NSI+JiMxMDUzOyYjMTA3MjsmIzEwNzk7JiMxMDg1OyYjMTA3MjsmIzEwOTU7JiMxMDgwOyYjMTA5MDsmIzExMDA7ICYjMTA4OTsmIzEwNzc7JiMxMDg5OyYjMTA4OTsmIzEwODA7JiMxMTAyOyAmIzEwODc7JiMxMDg2OyYjMTA3NjsmIzEwNzY7JiMxMDc3OyYjMTA4ODsmIzEwNzg7JiMxMDgyOyYjMTA4MDs8L3RleHQ+PHJlY3QgZmlsbD0iI0YxRjFGMSIgaGVpZ2h0PSIzMi44NDM4IiByeD0iMTIuNSIgcnk9IjEyLjUiIHN0eWxlPSJzdHJva2U6IzE4MTgxODtzdHJva2Utd2lkdGg6MC41OyIgd2lkdGg9IjE4MiIgeD0iNTc3IiB5PSIxMzE0LjUxMTciLz48dGV4dCBmaWxsPSIjMDAwMDAwIiBmb250LWZhbWlseT0ic2Fucy1zZXJpZiIgZm9udC1zaXplPSIxMiIgbGVuZ3RoQWRqdXN0PSJzcGFjaW5nIiB0ZXh0TGVuZ3RoPSIxNjIiIHg9IjU4NyIgeT0iMTMzNS44NTU1Ij4mIzEwNTU7JiMxMDg2OyYjMTA3NDsmIzEwOTA7JiMxMDg2OyYjMTA4ODsmIzEwODU7JiMxMDg2OyYjMTA3NzsgJiMxMDg3OyYjMTA4ODsmIzEwODY7JiMxMDkzOyYjMTA4NjsmIzEwNzg7JiMxMDc2OyYjMTA3NzsmIzEwODU7JiMxMDgwOyYjMTA3NzsgJiMxMDkwOyYjMTA3NzsmIzEwODk7JiMxMDkwOyYjMTA3Mjs8L3RleHQ+PHJlY3QgZmlsbD0iI0YxRjFGMSIgaGVpZ2h0PSIzMi44NDM4IiByeD0iMTIuNSIgcnk9IjEyLjUiIHN0eWxlPSJzdHJva2U6IzE4MTgxODtzdHJva2Utd2lkdGg6MC41OyIgd2lkdGg9IjIwNiIgeD0iNTY1IiB5PSIxNDI3LjgyNDIiLz48dGV4dCBmaWxsPSIjMDAwMDAwIiBmb250LWZhbWlseT0ic2Fucy1zZXJpZiIgZm9udC1zaXplPSIxMiIgbGVuZ3RoQWRqdXN0PSJzcGFjaW5nIiB0ZXh0TGVuZ3RoPSIxODYiIHg9IjU3NSIgeT0iMTQ0OS4xNjgiPiYjMTA1OTsmIzEwNzQ7JiMxMDc3OyYjMTA3NjsmIzEwODY7JiMxMDg0OyYjMTA4MDsmIzEwOTA7JiMxMTAwOyAmIzEwODk7JiMxMDkwOyYjMTA5MTsmIzEwNzY7JiMxMDc3OyYjMTA4NTsmIzEwOTA7JiMxMDcyOyAmIzEwODY7ICYjMTA3OTsmIzEwNzI7JiMxMDc0OyYjMTA3NzsmIzEwODg7JiMxMDk2OyYjMTA3NzsmIzEwODU7JiMxMDgwOyYjMTA4MDs8L3RleHQ+PHJlY3QgZmlsbD0iI0YxRjFGMSIgaGVpZ2h0PSIzMi44NDM4IiByeD0iMTIuNSIgcnk9IjEyLjUiIHN0eWxlPSJzdHJva2U6IzE4MTgxODtzdHJva2Utd2lkdGg6MC41OyIgd2lkdGg9IjE1MiIgeD0iNTkyIiB5PSIxNTQxLjEzNjciLz48dGV4dCBmaWxsPSIjMDAwMDAwIiBmb250LWZhbWlseT0ic2Fucy1zZXJpZiIgZm9udC1zaXplPSIxMiIgbGVuZ3RoQWRqdXN0PSJzcGFjaW5nIiB0ZXh0TGVuZ3RoPSIxMzIiIHg9IjYwMiIgeT0iMTU2Mi40ODA1Ij4mIzEwNTU7JiMxMDg4OyYjMTA4NjsmIzEwODk7JiMxMDg0OyYjMTA4NjsmIzEwOTA7JiMxMDg4OyYjMTA3NzsmIzEwOTA7JiMxMTAwOyAmIzEwODk7JiMxMDc3OyYjMTA4ODsmIzEwOTA7JiMxMDgwOyYjMTA5MjsmIzEwODA7JiMxMDgyOyYjMTA3MjsmIzEwOTA7PC90ZXh0PjxlbGxpcHNlIGN4PSI2NjgiIGN5PSIxNjA0Ljk4MDUiIGZpbGw9Im5vbmUiIHJ4PSIxMSIgcnk9IjExIiBzdHlsZT0ic3Ryb2tlOiMyMjIyMjI7c3Ryb2tlLXdpZHRoOjE7Ii8+PGVsbGlwc2UgY3g9IjY2OCIgY3k9IjE2MDQuOTgwNSIgZmlsbD0iIzIyMjIyMiIgcng9IjYiIHJ5PSI2IiBzdHlsZT0ic3Ryb2tlOiMyMjIyMjI7c3Ryb2tlLXdpZHRoOjE7Ii8+PHBvbHlnb24gZmlsbD0iI0YxRjFGMSIgcG9pbnRzPSI1ODIuNzUsMTE0MS40MjU4LDc1My4yNSwxMTQxLjQyNTgsNzY1LjI1LDExNTMuNDI1OCw3NTMuMjUsMTE2NS40MjU4LDU4Mi43NSwxMTY1LjQyNTgsNTcwLjc1LDExNTMuNDI1OCw1ODIuNzUsMTE0MS40MjU4IiBzdHlsZT0ic3Ryb2tlOiMxODE4MTg7c3Ryb2tlLXdpZHRoOjAuNTsiLz48dGV4dCBmaWxsPSIjMDAwMDAwIiBmb250LWZhbWlseT0ic2Fucy1zZXJpZiIgZm9udC1zaXplPSIxMSIgbGVuZ3RoQWRqdXN0PSJzcGFjaW5nIiB0ZXh0TGVuZ3RoPSIxMSIgeD0iNjcyIiB5PSIxMTc1LjgyNDIiPiYjMTA3NjsmIzEwNzI7PC90ZXh0Pjx0ZXh0IGZpbGw9IiMwMDAwMDAiIGZvbnQtZmFtaWx5PSJzYW5zLXNlcmlmIiBmb250LXNpemU9IjExIiBsZW5ndGhBZGp1c3Q9InNwYWNpbmciIHRleHRMZW5ndGg9IjE3MC41IiB4PSI1ODIuNzUiIHk9IjExNTcuOTM3NSI+JiMxMDUzOyYjMTA5MTsmIzEwNzg7JiMxMDg1OyYjMTA3MjsgJiMxMDc2OyYjMTA4NjsmIzEwODc7JiMxMDg2OyYjMTA4MzsmIzEwODU7JiMxMDgwOyYjMTA5MDsmIzEwNzc7JiMxMDgzOyYjMTEwMDsmIzEwODU7JiMxMDcyOyYjMTEwMzsgJiMxMDg3OyYjMTA4NjsmIzEwNzY7JiMxMDc2OyYjMTA3NzsmIzEwODg7JiMxMDc4OyYjMTA4MjsmIzEwNzI7PzwvdGV4dD48bGluZSBzdHlsZT0ic3Ryb2tlOiMwMDAwMDA7c3Ryb2tlLXdpZHRoOjEuNTsiIHgxPSI1NDEiIHgyPSI1NDEiIHkxPSIxMSIgeTI9IjE2MzcuOTgwNSIvPjxsaW5lIHN0eWxlPSJzdHJva2U6IzAwMDAwMDtzdHJva2Utd2lkdGg6MS41OyIgeDE9Ijg4Mi41IiB4Mj0iODgyLjUiIHkxPSIxMSIgeTI9IjE2MzcuOTgwNSIvPjxsaW5lIHN0eWxlPSJzdHJva2U6IzE4MTgxODtzdHJva2Utd2lkdGg6MTsiIHgxPSIxMDYiIHgyPSIxMDYiIHkxPSIyMjkuNDIxOSIgeTI9IjI4Mi4zNDM4Ii8+PHBvbHlnb24gZmlsbD0iIzE4MTgxOCIgcG9pbnRzPSIxMDIsMjcyLjM0MzgsMTA2LDI4Mi4zNDM4LDExMCwyNzIuMzQzOCwxMDYsMjc2LjM0MzgiIHN0eWxlPSJzdHJva2U6IzE4MTgxODtzdHJva2Utd2lkdGg6MTsiLz48dGV4dCBmaWxsPSIjMDAwMDAwIiBmb250LWZhbWlseT0ic2Fucy1zZXJpZiIgZm9udC1zaXplPSIxMSIgbGVuZ3RoQWRqdXN0PSJzcGFjaW5nIiB0ZXh0TGVuZ3RoPSI2NiIgeD0iMTEwIiB5PSIyNDkuNjk1MyI+JiMxMDU1OyYjMTA4NjsmIzEwODM7JiMxMTAwOyYjMTA3OTsmIzEwODY7JiMxMDc0OyYjMTA3MjsmIzEwOTA7JiMxMDc3OyYjMTA4MzsmIzExMDA7PC90ZXh0PjxsaW5lIHN0eWxlPSJzdHJva2U6IzAwMDAwMDtzdHJva2Utd2lkdGg6MTsiIHgxPSIxMTAiIHgyPSIxNzYiIHkxPSIyMzkuMjk2OSIgeTI9IjIzOS4yOTY5Ii8+PGxpbmUgc3R5bGU9InN0cm9rZTojMDAwMDAwO3N0cm9rZS13aWR0aDoxOyIgeDE9IjExMCIgeDI9IjE3NiIgeTE9IjI1MS4wNzAzIiB5Mj0iMjUxLjA3MDMiLz48bGluZSBzdHlsZT0ic3Ryb2tlOiMwMDAwMDA7c3Ryb2tlLXdpZHRoOjE7IiB4MT0iMTEwIiB4Mj0iMTEwIiB5MT0iMjM5LjI5NjkiIHkyPSIyNTEuMDcwMyIvPjxsaW5lIHN0eWxlPSJzdHJva2U6IzAwMDAwMDtzdHJva2Utd2lkdGg6MTsiIHgxPSIxNzYiIHgyPSIxNzYiIHkxPSIyMzkuMjk2OSIgeTI9IjI1MS4wNzAzIi8+PHRleHQgZmlsbD0iIzAwMDAwMCIgZm9udC1mYW1pbHk9InNhbnMtc2VyaWYiIGZvbnQtc2l6ZT0iMTEiIGxlbmd0aEFkanVzdD0ic3BhY2luZyIgdGV4dExlbmd0aD0iMTMyIiB4PSIxMTAiIHk9IjI2My40Njg4Ij46JiMxMDU1OyYjMTA4NjsmIzEwNzQ7JiMxMDkwOyYjMTA4NjsmIzEwODg7JiMxMDgwOyYjMTA5MDsmIzExMDA7ICYjMTA4NzsmIzEwODY7JiMxMDg3OyYjMTA5OTsmIzEwOTA7JiMxMDgyOyYjMTA5MTsgJiMxMDc0OyYjMTA5MzsmIzEwODY7JiMxMDc2OyYjMTA3Mjs8L3RleHQ+PGxpbmUgc3R5bGU9InN0cm9rZTojMTgxODE4O3N0cm9rZS13aWR0aDoxOyIgeDE9IjEwNiIgeDI9IjEwNiIgeTE9IjE3Mi41NzgxIiB5Mj0iMTk2LjU3ODEiLz48cG9seWdvbiBmaWxsPSIjMTgxODE4IiBwb2ludHM9IjEwMiwxODYuNTc4MSwxMDYsMTk2LjU3ODEsMTEwLDE4Ni41NzgxLDEwNiwxOTAuNTc4MSIgc3R5bGU9InN0cm9rZTojMTgxODE4O3N0cm9rZS13aWR0aDoxOyIvPjxsaW5lIHN0eWxlPSJzdHJva2U6IzE4MTgxODtzdHJva2Utd2lkdGg6MTsiIHgxPSIxNTMuNzUiIHgyPSIzNTciIHkxPSIxNjAuNTc4MSIgeTI9IjE2MC41NzgxIi8+PHBvbHlnb24gZmlsbD0iIzE4MTgxOCIgcG9pbnRzPSIzNTMsMjUwLjE0ODQsMzU3LDI2MC4xNDg0LDM2MSwyNTAuMTQ4NCwzNTcsMjU0LjE0ODQiIHN0eWxlPSJzdHJva2U6IzE4MTgxODtzdHJva2Utd2lkdGg6MTsiLz48bGluZSBzdHlsZT0ic3Ryb2tlOiMxODE4MTg7c3Ryb2tlLXdpZHRoOjE7IiB4MT0iMzU3IiB4Mj0iMzU3IiB5MT0iMTYwLjU3ODEiIHkyPSIzNDYuMzQzOCIvPjxwb2x5Z29uIGZpbGw9IiMxODE4MTgiIHBvaW50cz0iMzUzLDMzNi4zNDM4LDM1NywzNDYuMzQzOCwzNjEsMzM2LjM0MzgsMzU3LDM0MC4zNDM4IiBzdHlsZT0ic3Ryb2tlOiMxODE4MTg7c3Ryb2tlLXdpZHRoOjE7Ii8+PGxpbmUgc3R5bGU9InN0cm9rZTojMTgxODE4O3N0cm9rZS13aWR0aDoxOyIgeDE9IjEwNiIgeDI9IjEwNiIgeTE9IjY4LjEwOTQiIHkyPSIxNDguNTc4MSIvPjxwb2x5Z29uIGZpbGw9IiMxODE4MTgiIHBvaW50cz0iMTAyLDEzOC41NzgxLDEwNiwxNDguNTc4MSwxMTAsMTM4LjU3ODEsMTA2LDE0Mi41NzgxIiBzdHlsZT0ic3Ryb2tlOiMxODE4MTg7c3Ryb2tlLXdpZHRoOjE7Ii8+PHRleHQgZmlsbD0iIzAwMDAwMCIgZm9udC1mYW1pbHk9InNhbnMtc2VyaWYiIGZvbnQtc2l6ZT0iMTEiIGxlbmd0aEFkanVzdD0ic3BhY2luZyIgdGV4dExlbmd0aD0iMzguNSIgeD0iMTEwIiB5PSI4OC4zODI4Ij4mIzEwNTc7JiMxMDgwOyYjMTA4OTsmIzEwOTA7JiMxMDc3OyYjMTA4NDsmIzEwNzI7PC90ZXh0PjxsaW5lIHN0eWxlPSJzdHJva2U6IzAwMDAwMDtzdHJva2Utd2lkdGg6MTsiIHgxPSIxMTAiIHgyPSIxNDguNSIgeTE9Ijc3Ljk4NDQiIHkyPSI3Ny45ODQ0Ii8+PGxpbmUgc3R5bGU9InN0cm9rZTojMDAwMDAwO3N0cm9rZS13aWR0aDoxOyIgeDE9IjExMCIgeDI9IjE0OC41IiB5MT0iODkuNzU3OCIgeTI9Ijg5Ljc1NzgiLz48bGluZSBzdHlsZT0ic3Ryb2tlOiMwMDAwMDA7c3Ryb2tlLXdpZHRoOjE7IiB4MT0iMTEwIiB4Mj0iMTEwIiB5MT0iNzcuOTg0NCIgeTI9Ijg5Ljc1NzgiLz48bGluZSBzdHlsZT0ic3Ryb2tlOiMwMDAwMDA7c3Ryb2tlLXdpZHRoOjE7IiB4MT0iMTQ4LjUiIHgyPSIxNDguNSIgeTE9Ijc3Ljk4NDQiIHkyPSI4OS43NTc4Ii8+PHRleHQgZmlsbD0iIzAwMDAwMCIgZm9udC1mYW1pbHk9InNhbnMtc2VyaWYiIGZvbnQtc2l6ZT0iMTEiIGxlbmd0aEFkanVzdD0ic3BhY2luZyIgdGV4dExlbmd0aD0iNS41IiB4PSIxMTAiIHk9IjEwMi4xNTYzIj4mIzE2MDs8L3RleHQ+PHRleHQgZmlsbD0iIzAwMDAwMCIgZm9udC1mYW1pbHk9InNhbnMtc2VyaWYiIGZvbnQtc2l6ZT0iMTEiIGxlbmd0aEFkanVzdD0ic3BhY2luZyIgdGV4dExlbmd0aD0iMzguNSIgeD0iMTEwIiB5PSIxMTUuOTI5NyI+JiMxMDU3OyYjMTA4MDsmIzEwODk7JiMxMDkwOyYjMTA3NzsmIzEwODQ7JiMxMDcyOzwvdGV4dD48bGluZSBzdHlsZT0ic3Ryb2tlOiMwMDAwMDA7c3Ryb2tlLXdpZHRoOjE7IiB4MT0iMTEwIiB4Mj0iMTQ4LjUiIHkxPSIxMDUuNTMxMyIgeTI9IjEwNS41MzEzIi8+PGxpbmUgc3R5bGU9InN0cm9rZTojMDAwMDAwO3N0cm9rZS13aWR0aDoxOyIgeDE9IjExMCIgeDI9IjE0OC41IiB5MT0iMTE3LjMwNDciIHkyPSIxMTcuMzA0NyIvPjxsaW5lIHN0eWxlPSJzdHJva2U6IzAwMDAwMDtzdHJva2Utd2lkdGg6MTsiIHgxPSIxMTAiIHgyPSIxMTAiIHkxPSIxMDUuNTMxMyIgeTI9IjExNy4zMDQ3Ii8+PGxpbmUgc3R5bGU9InN0cm9rZTojMDAwMDAwO3N0cm9rZS13aWR0aDoxOyIgeDE9IjE0OC41IiB4Mj0iMTQ4LjUiIHkxPSIxMDUuNTMxMyIgeTI9IjExNy4zMDQ3Ii8+PHRleHQgZmlsbD0iIzAwMDAwMCIgZm9udC1mYW1pbHk9InNhbnMtc2VyaWYiIGZvbnQtc2l6ZT0iMTEiIGxlbmd0aEFkanVzdD0ic3BhY2luZyIgdGV4dExlbmd0aD0iMTMyIiB4PSIxMTAiIHk9IjEyOS43MDMxIj46JiMxMDU1OyYjMTA4ODsmIzEwODY7JiMxMDc0OyYjMTA3NzsmIzEwODg7JiMxMDgyOyYjMTA3MjsgJiMxMDkxOyYjMTA5NTsmIzEwNzc7JiMxMDkwOyYjMTA4NTsmIzEwOTk7JiMxMDkzOyAmIzEwNzY7JiMxMDcyOyYjMTA4NTsmIzEwODU7JiMxMDk5OyYjMTA5Mzs8L3RleHQ+PGxpbmUgc3R5bGU9InN0cm9rZTojMTgxODE4O3N0cm9rZS13aWR0aDoxOyIgeDE9IjM1NyIgeDI9IjM1NyIgeTE9IjM3OS4xODc1IiB5Mj0iMzk5LjE4NzUiLz48cG9seWdvbiBmaWxsPSIjMTgxODE4IiBwb2ludHM9IjM1MywzODkuMTg3NSwzNTcsMzk5LjE4NzUsMzYxLDM4OS4xODc1LDM1NywzOTMuMTg3NSIgc3R5bGU9InN0cm9rZTojMTgxODE4O3N0cm9rZS13aWR0aDoxOyIvPjxsaW5lIHN0eWxlPSJzdHJva2U6IzE4MTgxODtzdHJva2Utd2lkdGg6MTsiIHgxPSIzNTciIHgyPSIzNTciIHkxPSI0MzIuMDMxMyIgeTI9IjQ1Mi4wMzEzIi8+PHBvbHlnb24gZmlsbD0iIzE4MTgxOCIgcG9pbnRzPSIzNTMsNDQyLjAzMTMsMzU3LDQ1Mi4wMzEzLDM2MSw0NDIuMDMxMywzNTcsNDQ2LjAzMTMiIHN0eWxlPSJzdHJva2U6IzE4MTgxODtzdHJva2Utd2lkdGg6MTsiLz48bGluZSBzdHlsZT0ic3Ryb2tlOiMxODE4MTg7c3Ryb2tlLXdpZHRoOjE7IiB4MT0iMzU3IiB4Mj0iMzU3IiB5MT0iNDg0Ljg3NSIgeTI9IjU2NS4zNDM4Ii8+PHBvbHlnb24gZmlsbD0iIzE4MTgxOCIgcG9pbnRzPSIzNTMsNTU1LjM0MzgsMzU3LDU2NS4zNDM4LDM2MSw1NTUuMzQzOCwzNTcsNTU5LjM0MzgiIHN0eWxlPSJzdHJva2U6IzE4MTgxODtzdHJva2Utd2lkdGg6MTsiLz48dGV4dCBmaWxsPSIjMDAwMDAwIiBmb250LWZhbWlseT0ic2Fucy1zZXJpZiIgZm9udC1zaXplPSIxMSIgbGVuZ3RoQWRqdXN0PSJzcGFjaW5nIiB0ZXh0TGVuZ3RoPSIzOC41IiB4PSIzNjEiIHk9IjUwNS4xNDg0Ij4mIzEwNTc7JiMxMDkwOyYjMTA5MTsmIzEwNzY7JiMxMDc3OyYjMTA4NTsmIzEwOTA7PC90ZXh0PjxsaW5lIHN0eWxlPSJzdHJva2U6IzAwMDAwMDtzdHJva2Utd2lkdGg6MTsiIHgxPSIzNjEiIHgyPSIzOTkuNSIgeTE9IjQ5NC43NSIgeTI9IjQ5NC43NSIvPjxsaW5lIHN0eWxlPSJzdHJva2U6IzAwMDAwMDtzdHJva2Utd2lkdGg6MTsiIHgxPSIzNjEiIHgyPSIzOTkuNSIgeTE9IjUwNi41MjM0IiB5Mj0iNTA2LjUyMzQiLz48bGluZSBzdHlsZT0ic3Ryb2tlOiMwMDAwMDA7c3Ryb2tlLXdpZHRoOjE7IiB4MT0iMzYxIiB4Mj0iMzYxIiB5MT0iNDk0Ljc1IiB5Mj0iNTA2LjUyMzQiLz48bGluZSBzdHlsZT0ic3Ryb2tlOiMwMDAwMDA7c3Ryb2tlLXdpZHRoOjE7IiB4MT0iMzk5LjUiIHgyPSIzOTkuNSIgeTE9IjQ5NC43NSIgeTI9IjUwNi41MjM0Ii8+PHRleHQgZmlsbD0iIzAwMDAwMCIgZm9udC1mYW1pbHk9InNhbnMtc2VyaWYiIGZvbnQtc2l6ZT0iMTEiIGxlbmd0aEFkanVzdD0ic3BhY2luZyIgdGV4dExlbmd0aD0iNS41IiB4PSIzNjEiIHk9IjUxOC45MjE5Ij4mIzE2MDs8L3RleHQ+PHRleHQgZmlsbD0iIzAwMDAwMCIgZm9udC1mYW1pbHk9InNhbnMtc2VyaWYiIGZvbnQtc2l6ZT0iMTEiIGxlbmd0aEFkanVzdD0ic3BhY2luZyIgdGV4dExlbmd0aD0iMzguNSIgeD0iMzYxIiB5PSI1MzIuNjk1MyI+JiMxMDU3OyYjMTA5MDsmIzEwOTE7JiMxMDc2OyYjMTA3NzsmIzEwODU7JiMxMDkwOzwvdGV4dD48bGluZSBzdHlsZT0ic3Ryb2tlOiMwMDAwMDA7c3Ryb2tlLXdpZHRoOjE7IiB4MT0iMzYxIiB4Mj0iMzk5LjUiIHkxPSI1MjIuMjk2OSIgeTI9IjUyMi4yOTY5Ii8+PGxpbmUgc3R5bGU9InN0cm9rZTojMDAwMDAwO3N0cm9rZS13aWR0aDoxOyIgeDE9IjM2MSIgeDI9IjM5OS41IiB5MT0iNTM0LjA3MDMiIHkyPSI1MzQuMDcwMyIvPjxsaW5lIHN0eWxlPSJzdHJva2U6IzAwMDAwMDtzdHJva2Utd2lkdGg6MTsiIHgxPSIzNjEiIHgyPSIzNjEiIHkxPSI1MjIuMjk2OSIgeTI9IjUzNC4wNzAzIi8+PGxpbmUgc3R5bGU9InN0cm9rZTojMDAwMDAwO3N0cm9rZS13aWR0aDoxOyIgeDE9IjM5OS41IiB4Mj0iMzk5LjUiIHkxPSI1MjIuMjk2OSIgeTI9IjUzNC4wNzAzIi8+PHRleHQgZmlsbD0iIzAwMDAwMCIgZm9udC1mYW1pbHk9InNhbnMtc2VyaWYiIGZvbnQtc2l6ZT0iMTEiIGxlbmd0aEFkanVzdD0ic3BhY2luZyIgdGV4dExlbmd0aD0iNjYiIHg9IjM2MSIgeT0iNTQ2LjQ2ODgiPjomIzEwNTU7JiMxMDg4OyYjMTA4NjsmIzEwODE7JiMxMDkwOyYjMTA4MDsgJiMxMDkwOyYjMTA3NzsmIzEwODk7JiMxMDkwOzwvdGV4dD48bGluZSBzdHlsZT0ic3Ryb2tlOiMxODE4MTg7c3Ryb2tlLXdpZHRoOjE7IiB4MT0iMzU3IiB4Mj0iMzU3IiB5MT0iNzU5LjUiIHkyPSI4MjQuMTk1MyIvPjxwb2x5Z29uIGZpbGw9IiMxODE4MTgiIHBvaW50cz0iMzUzLDgxNC4xOTUzLDM1Nyw4MjQuMTk1MywzNjEsODE0LjE5NTMsMzU3LDgxOC4xOTUzIiBzdHlsZT0ic3Ryb2tlOiMxODE4MTg7c3Ryb2tlLXdpZHRoOjE7Ii8+PHRleHQgZmlsbD0iIzAwMDAwMCIgZm9udC1mYW1pbHk9InNhbnMtc2VyaWYiIGZvbnQtc2l6ZT0iMTEiIGxlbmd0aEFkanVzdD0ic3BhY2luZyIgdGV4dExlbmd0aD0iNzEuNSIgeD0iMzYxIiB5PSI3NzkuNzczNCI+JiMxMDU1OyYjMTA4ODsmIzEwNzc7JiMxMDg3OyYjMTA4NjsmIzEwNzY7JiMxMDcyOyYjMTA3NDsmIzEwNzI7JiMxMDkwOyYjMTA3NzsmIzEwODM7JiMxMTAwOzwvdGV4dD48bGluZSBzdHlsZT0ic3Ryb2tlOiMwMDAwMDA7c3Ryb2tlLXdpZHRoOjE7IiB4MT0iMzYxIiB4Mj0iNDMyLjUiIHkxPSI3NjkuMzc1IiB5Mj0iNzY5LjM3NSIvPjxsaW5lIHN0eWxlPSJzdHJva2U6IzAwMDAwMDtzdHJva2Utd2lkdGg6MTsiIHgxPSIzNjEiIHgyPSI0MzIuNSIgeTE9Ijc4MS4xNDg0IiB5Mj0iNzgxLjE0ODQiLz48bGluZSBzdHlsZT0ic3Ryb2tlOiMwMDAwMDA7c3Ryb2tlLXdpZHRoOjE7IiB4MT0iMzYxIiB4Mj0iMzYxIiB5MT0iNzY5LjM3NSIgeTI9Ijc4MS4xNDg0Ii8+PGxpbmUgc3R5bGU9InN0cm9rZTojMDAwMDAwO3N0cm9rZS13aWR0aDoxOyIgeDE9IjQzMi41IiB4Mj0iNDMyLjUiIHkxPSI3NjkuMzc1IiB5Mj0iNzgxLjE0ODQiLz48dGV4dCBmaWxsPSIjMDAwMDAwIiBmb250LWZhbWlseT0ic2Fucy1zZXJpZiIgZm9udC1zaXplPSIxMSIgbGVuZ3RoQWRqdXN0PSJzcGFjaW5nIiB0ZXh0TGVuZ3RoPSI1NSIgeD0iMzYxIiB5PSI3OTMuNTQ2OSI+ZWxzZSAoJiMxMDg1OyYjMTA3NzsmIzEwOTA7KTwvdGV4dD48dGV4dCBmaWxsPSIjMDAwMDAwIiBmb250LWZhbWlseT0ic2Fucy1zZXJpZiIgZm9udC1zaXplPSIxMSIgbGVuZ3RoQWRqdXN0PSJzcGFjaW5nIiB0ZXh0TGVuZ3RoPSIxNDguNSIgeD0iMzcyIiB5PSI4MDUuMzIwMyI+OiYjMTA1NDsmIzEwOTA7JiMxMDg0OyYjMTA3NzsmIzEwOTA7JiMxMDgwOyYjMTA5MDsmIzExMDA7ICYjMTA4MjsmIzEwNzI7JiMxMDgyOyAmIzE3MTsmIzEwNTM7JiMxMDc3OyAmIzEwODc7JiMxMDg4OyYjMTA4NjsmIzEwODE7JiMxMDc2OyYjMTA3NzsmIzEwODU7JiMxMDg2OyYjMTg3OzwvdGV4dD48bGluZSBzdHlsZT0ic3Ryb2tlOiMxODE4MTg7c3Ryb2tlLXdpZHRoOjE7IiB4MT0iMzU3IiB4Mj0iMzU3IiB5MT0iODU3LjAzOTEiIHkyPSI5MTguODk0NSIvPjxwb2x5Z29uIGZpbGw9IiMxODE4MTgiIHBvaW50cz0iMzUzLDkwOC44OTQ1LDM1Nyw5MTguODk0NSwzNjEsOTA4Ljg5NDUsMzU3LDkxMi44OTQ1IiBzdHlsZT0ic3Ryb2tlOiMxODE4MTg7c3Ryb2tlLXdpZHRoOjE7Ii8+PHRleHQgZmlsbD0iIzAwMDAwMCIgZm9udC1mYW1pbHk9InNhbnMtc2VyaWYiIGZvbnQtc2l6ZT0iMTEiIGxlbmd0aEFkanVzdD0ic3BhY2luZyIgdGV4dExlbmd0aD0iMzguNSIgeD0iMzYxIiB5PSI4ODYuMjQ2MSI+JiMxMDU3OyYjMTA5MDsmIzEwOTE7JiMxMDc2OyYjMTA3NzsmIzEwODU7JiMxMDkwOzwvdGV4dD48bGluZSBzdHlsZT0ic3Ryb2tlOiMwMDAwMDA7c3Ryb2tlLXdpZHRoOjE7IiB4MT0iMzYxIiB4Mj0iMzk5LjUiIHkxPSI4NzUuODQ3NyIgeTI9Ijg3NS44NDc3Ii8+PGxpbmUgc3R5bGU9InN0cm9rZTojMDAwMDAwO3N0cm9rZS13aWR0aDoxOyIgeDE9IjM2MSIgeDI9IjM5OS41IiB5MT0iODg3LjYyMTEiIHkyPSI4ODcuNjIxMSIvPjxsaW5lIHN0eWxlPSJzdHJva2U6IzAwMDAwMDtzdHJva2Utd2lkdGg6MTsiIHgxPSIzNjEiIHgyPSIzNjEiIHkxPSI4NzUuODQ3NyIgeTI9Ijg4Ny42MjExIi8+PGxpbmUgc3R5bGU9InN0cm9rZTojMDAwMDAwO3N0cm9rZS13aWR0aDoxOyIgeDE9IjM5OS41IiB4Mj0iMzk5LjUiIHkxPSI4NzUuODQ3NyIgeTI9Ijg4Ny42MjExIi8+PHRleHQgZmlsbD0iIzAwMDAwMCIgZm9udC1mYW1pbHk9InNhbnMtc2VyaWYiIGZvbnQtc2l6ZT0iMTEiIGxlbmd0aEFkanVzdD0ic3BhY2luZyIgdGV4dExlbmd0aD0iMTQ4LjUiIHg9IjM2MSIgeT0iOTAwLjAxOTUiPjomIzEwNTU7JiMxMDg4OyYjMTA4NjsmIzEwODk7JiMxMDg0OyYjMTA4NjsmIzEwOTA7JiMxMDg4OyYjMTA3NzsmIzEwOTA7JiMxMTAwOyAmIzEwODY7JiMxMDczOyYjMTA4ODsmIzEwNzI7JiMxMDkwOyYjMTA4NTsmIzEwOTE7JiMxMTAyOyAmIzEwODk7JiMxMDc0OyYjMTEwMzsmIzEwNzk7JiMxMTAwOzwvdGV4dD48bGluZSBzdHlsZT0ic3Ryb2tlOiMxODE4MTg7c3Ryb2tlLXdpZHRoOjE7IiB4MT0iMzU3IiB4Mj0iMzU3IiB5MT0iOTUxLjczODMiIHkyPSI5NzEuNzM4MyIvPjxwb2x5Z29uIGZpbGw9IiMxODE4MTgiIHBvaW50cz0iMzUzLDk2MS43MzgzLDM1Nyw5NzEuNzM4MywzNjEsOTYxLjczODMsMzU3LDk2NS43MzgzIiBzdHlsZT0ic3Ryb2tlOiMxODE4MTg7c3Ryb2tlLXdpZHRoOjE7Ii8+PGxpbmUgc3R5bGU9InN0cm9rZTojMTgxODE4O3N0cm9rZS13aWR0aDoxOyIgeDE9IjM1NyIgeDI9IjM1NyIgeTE9IjcwMi42NTYzIiB5Mj0iNzI2LjY1NjMiLz48cG9seWdvbiBmaWxsPSIjMTgxODE4IiBwb2ludHM9IjM1Myw3MTYuNjU2MywzNTcsNzI2LjY1NjMsMzYxLDcxNi42NTYzLDM1Nyw3MjAuNjU2MyIgc3R5bGU9InN0cm9rZTojMTgxODE4O3N0cm9rZS13aWR0aDoxOyIvPjxsaW5lIHN0eWxlPSJzdHJva2U6IzE4MTgxODtzdHJva2Utd2lkdGg6MTsiIHgxPSI0MTguNSIgeDI9IjY2OCIgeTE9IjY5MC42NTYzIiB5Mj0iNjkwLjY1NjMiLz48cG9seWdvbiBmaWxsPSIjMTgxODE4IiBwb2ludHM9IjY2NCw4NjcuMDM5MSw2NjgsODc3LjAzOTEsNjcyLDg2Ny4wMzkxLDY2OCw4NzEuMDM5MSIgc3R5bGU9InN0cm9rZTojMTgxODE4O3N0cm9rZS13aWR0aDoxOyIvPjxsaW5lIHN0eWxlPSJzdHJva2U6IzE4MTgxODtzdHJva2Utd2lkdGg6MTsiIHgxPSI2NjgiIHgyPSI2NjgiIHkxPSI2OTAuNjU2MyIgeTI9IjEwMzUuNzM4MyIvPjxwb2x5Z29uIGZpbGw9IiMxODE4MTgiIHBvaW50cz0iNjY0LDEwMjUuNzM4Myw2NjgsMTAzNS43MzgzLDY3MiwxMDI1LjczODMsNjY4LDEwMjkuNzM4MyIgc3R5bGU9InN0cm9rZTojMTgxODE4O3N0cm9rZS13aWR0aDoxOyIvPjxsaW5lIHN0eWxlPSJzdHJva2U6IzE4MTgxODtzdHJva2Utd2lkdGg6MTsiIHgxPSIzNTciIHgyPSIzNTciIHkxPSI1OTguMTg3NSIgeTI9IjY3OC42NTYzIi8+PHBvbHlnb24gZmlsbD0iIzE4MTgxOCIgcG9pbnRzPSIzNTMsNjY4LjY1NjMsMzU3LDY3OC42NTYzLDM2MSw2NjguNjU2MywzNTcsNjcyLjY1NjMiIHN0eWxlPSJzdHJva2U6IzE4MTgxODtzdHJva2Utd2lkdGg6MTsiLz48dGV4dCBmaWxsPSIjMDAwMDAwIiBmb250LWZhbWlseT0ic2Fucy1zZXJpZiIgZm9udC1zaXplPSIxMSIgbGVuZ3RoQWRqdXN0PSJzcGFjaW5nIiB0ZXh0TGVuZ3RoPSIzOC41IiB4PSIzNjEiIHk9IjYxOC40NjA5Ij4mIzEwNTc7JiMxMDgwOyYjMTA4OTsmIzEwOTA7JiMxMDc3OyYjMTA4NDsmIzEwNzI7PC90ZXh0PjxsaW5lIHN0eWxlPSJzdHJva2U6IzAwMDAwMDtzdHJva2Utd2lkdGg6MTsiIHgxPSIzNjEiIHgyPSIzOTkuNSIgeTE9IjYwOC4wNjI1IiB5Mj0iNjA4LjA2MjUiLz48bGluZSBzdHlsZT0ic3Ryb2tlOiMwMDAwMDA7c3Ryb2tlLXdpZHRoOjE7IiB4MT0iMzYxIiB4Mj0iMzk5LjUiIHkxPSI2MTkuODM1OSIgeTI9IjYxOS44MzU5Ii8+PGxpbmUgc3R5bGU9InN0cm9rZTojMDAwMDAwO3N0cm9rZS13aWR0aDoxOyIgeDE9IjM2MSIgeDI9IjM2MSIgeTE9IjYwOC4wNjI1IiB5Mj0iNjE5LjgzNTkiLz48bGluZSBzdHlsZT0ic3Ryb2tlOiMwMDAwMDA7c3Ryb2tlLXdpZHRoOjE7IiB4MT0iMzk5LjUiIHgyPSIzOTkuNSIgeTE9IjYwOC4wNjI1IiB5Mj0iNjE5LjgzNTkiLz48dGV4dCBmaWxsPSIjMDAwMDAwIiBmb250LWZhbWlseT0ic2Fucy1zZXJpZiIgZm9udC1zaXplPSIxMSIgbGVuZ3RoQWRqdXN0PSJzcGFjaW5nIiB0ZXh0TGVuZ3RoPSI1LjUiIHg9IjM2MSIgeT0iNjMyLjIzNDQiPiYjMTYwOzwvdGV4dD48dGV4dCBmaWxsPSIjMDAwMDAwIiBmb250LWZhbWlseT0ic2Fucy1zZXJpZiIgZm9udC1zaXplPSIxMSIgbGVuZ3RoQWRqdXN0PSJzcGFjaW5nIiB0ZXh0TGVuZ3RoPSIzOC41IiB4PSIzNjEiIHk9IjY0Ni4wMDc4Ij4mIzEwNTc7JiMxMDgwOyYjMTA4OTsmIzEwOTA7JiMxMDc3OyYjMTA4NDsmIzEwNzI7PC90ZXh0PjxsaW5lIHN0eWxlPSJzdHJva2U6IzAwMDAwMDtzdHJva2Utd2lkdGg6MTsiIHgxPSIzNjEiIHgyPSIzOTkuNSIgeTE9IjYzNS42MDk0IiB5Mj0iNjM1LjYwOTQiLz48bGluZSBzdHlsZT0ic3Ryb2tlOiMwMDAwMDA7c3Ryb2tlLXdpZHRoOjE7IiB4MT0iMzYxIiB4Mj0iMzk5LjUiIHkxPSI2NDcuMzgyOCIgeTI9IjY0Ny4zODI4Ii8+PGxpbmUgc3R5bGU9InN0cm9rZTojMDAwMDAwO3N0cm9rZS13aWR0aDoxOyIgeDE9IjM2MSIgeDI9IjM2MSIgeTE9IjYzNS42MDk0IiB5Mj0iNjQ3LjM4MjgiLz48bGluZSBzdHlsZT0ic3Ryb2tlOiMwMDAwMDA7c3Ryb2tlLXdpZHRoOjE7IiB4MT0iMzk5LjUiIHgyPSIzOTkuNSIgeTE9IjYzNS42MDk0IiB5Mj0iNjQ3LjM4MjgiLz48dGV4dCBmaWxsPSIjMDAwMDAwIiBmb250LWZhbWlseT0ic2Fucy1zZXJpZiIgZm9udC1zaXplPSIxMSIgbGVuZ3RoQWRqdXN0PSJzcGFjaW5nIiB0ZXh0TGVuZ3RoPSIxNjUiIHg9IjM2MSIgeT0iNjU5Ljc4MTMiPjomIzEwNDA7JiMxMDc0OyYjMTA5MDsmIzEwODY7JiMxMDg0OyYjMTA3MjsmIzEwOTA7JiMxMDgwOyYjMTA5NTsmIzEwNzc7JiMxMDg5OyYjMTA4MjsmIzEwNzI7JiMxMTAzOyAmIzEwODc7JiMxMDg4OyYjMTA4NjsmIzEwNzQ7JiMxMDc3OyYjMTA4ODsmIzEwODI7JiMxMDcyOyAmIzEwOTA7JiMxMDc3OyYjMTA4OTsmIzEwOTA7JiMxMDcyOzwvdGV4dD48bGluZSBzdHlsZT0ic3Ryb2tlOiMxODE4MTg7c3Ryb2tlLXdpZHRoOjE7IiB4MT0iNjY4IiB4Mj0iNjY4IiB5MT0iMTA2OC41ODIiIHkyPSIxMDg4LjU4MiIvPjxwb2x5Z29uIGZpbGw9IiMxODE4MTgiIHBvaW50cz0iNjY0LDEwNzguNTgyLDY2OCwxMDg4LjU4Miw2NzIsMTA3OC41ODIsNjY4LDEwODIuNTgyIiBzdHlsZT0ic3Ryb2tlOiMxODE4MTg7c3Ryb2tlLXdpZHRoOjE7Ii8+PGxpbmUgc3R5bGU9InN0cm9rZTojMTgxODE4O3N0cm9rZS13aWR0aDoxOyIgeDE9IjY2OCIgeDI9IjY2OCIgeTE9IjEyMjIuMjY5NSIgeTI9IjEzMTQuNTExNyIvPjxwb2x5Z29uIGZpbGw9IiMxODE4MTgiIHBvaW50cz0iNjY0LDEzMDQuNTExNyw2NjgsMTMxNC41MTE3LDY3MiwxMzA0LjUxMTcsNjY4LDEzMDguNTExNyIgc3R5bGU9InN0cm9rZTojMTgxODE4O3N0cm9rZS13aWR0aDoxOyIvPjx0ZXh0IGZpbGw9IiMwMDAwMDAiIGZvbnQtZmFtaWx5PSJzYW5zLXNlcmlmIiBmb250LXNpemU9IjExIiBsZW5ndGhBZGp1c3Q9InNwYWNpbmciIHRleHRMZW5ndGg9IjM4LjUiIHg9IjY3MiIgeT0iMTI0Mi41NDMiPiYjMTA1NzsmIzEwODA7JiMxMDg5OyYjMTA5MDsmIzEwNzc7JiMxMDg0OyYjMTA3Mjs8L3RleHQ+PGxpbmUgc3R5bGU9InN0cm9rZTojMDAwMDAwO3N0cm9rZS13aWR0aDoxOyIgeDE9IjY3MiIgeDI9IjcxMC41IiB5MT0iMTIzMi4xNDQ1IiB5Mj0iMTIzMi4xNDQ1Ii8+PGxpbmUgc3R5bGU9InN0cm9rZTojMDAwMDAwO3N0cm9rZS13aWR0aDoxOyIgeDE9IjY3MiIgeDI9IjcxMC41IiB5MT0iMTI0My45MTgiIHkyPSIxMjQzLjkxOCIvPjxsaW5lIHN0eWxlPSJzdHJva2U6IzAwMDAwMDtzdHJva2Utd2lkdGg6MTsiIHgxPSI2NzIiIHgyPSI2NzIiIHkxPSIxMjMyLjE0NDUiIHkyPSIxMjQzLjkxOCIvPjxsaW5lIHN0eWxlPSJzdHJva2U6IzAwMDAwMDtzdHJva2Utd2lkdGg6MTsiIHgxPSI3MTAuNSIgeDI9IjcxMC41IiB5MT0iMTIzMi4xNDQ1IiB5Mj0iMTI0My45MTgiLz48dGV4dCBmaWxsPSIjMDAwMDAwIiBmb250LWZhbWlseT0ic2Fucy1zZXJpZiIgZm9udC1zaXplPSIxMSIgbGVuZ3RoQWRqdXN0PSJzcGFjaW5nIiB0ZXh0TGVuZ3RoPSIyNy41IiB4PSI2NzIiIHk9IjEyNTYuMzE2NCI+ZW5kaWY8L3RleHQ+PHRleHQgZmlsbD0iIzAwMDAwMCIgZm9udC1mYW1pbHk9InNhbnMtc2VyaWYiIGZvbnQtc2l6ZT0iMTEiIGxlbmd0aEFkanVzdD0ic3BhY2luZyIgdGV4dExlbmd0aD0iNS41IiB4PSI2NzIiIHk9IjEyNjguMDg5OCI+JiMxNjA7PC90ZXh0Pjx0ZXh0IGZpbGw9IiMwMDAwMDAiIGZvbnQtZmFtaWx5PSJzYW5zLXNlcmlmIiBmb250LXNpemU9IjExIiBsZW5ndGhBZGp1c3Q9InNwYWNpbmciIHRleHRMZW5ndGg9IjM4LjUiIHg9IjY3MiIgeT0iMTI4MS44NjMzIj4mIzEwNTc7JiMxMDkwOyYjMTA5MTsmIzEwNzY7JiMxMDc3OyYjMTA4NTsmIzEwOTA7PC90ZXh0PjxsaW5lIHN0eWxlPSJzdHJva2U6IzAwMDAwMDtzdHJva2Utd2lkdGg6MTsiIHgxPSI2NzIiIHgyPSI3MTAuNSIgeTE9IjEyNzEuNDY0OCIgeTI9IjEyNzEuNDY0OCIvPjxsaW5lIHN0eWxlPSJzdHJva2U6IzAwMDAwMDtzdHJva2Utd2lkdGg6MTsiIHgxPSI2NzIiIHgyPSI3MTAuNSIgeTE9IjEyODMuMjM4MyIgeTI9IjEyODMuMjM4MyIvPjxsaW5lIHN0eWxlPSJzdHJva2U6IzAwMDAwMDtzdHJva2Utd2lkdGg6MTsiIHgxPSI2NzIiIHgyPSI2NzIiIHkxPSIxMjcxLjQ2NDgiIHkyPSIxMjgzLjIzODMiLz48bGluZSBzdHlsZT0ic3Ryb2tlOiMwMDAwMDA7c3Ryb2tlLXdpZHRoOjE7IiB4MT0iNzEwLjUiIHgyPSI3MTAuNSIgeTE9IjEyNzEuNDY0OCIgeTI9IjEyODMuMjM4MyIvPjx0ZXh0IGZpbGw9IiMwMDAwMDAiIGZvbnQtZmFtaWx5PSJzYW5zLXNlcmlmIiBmb250LXNpemU9IjExIiBsZW5ndGhBZGp1c3Q9InNwYWNpbmciIHRleHRMZW5ndGg9IjE0MyIgeD0iNjcyIiB5PSIxMjk1LjYzNjciPjomIzEwNTU7JiMxMDg2OyYjMTA4OTsmIzEwNzc7JiMxMDkwOyYjMTA4MDsmIzEwOTA7JiMxMTAwOyAmIzEwODk7JiMxMDc3OyYjMTA4OTsmIzEwODk7JiMxMDgwOyYjMTEwMjsgJiMxMDg3OyYjMTA4NjsmIzEwNzY7JiMxMDc2OyYjMTA3NzsmIzEwODg7JiMxMDc4OyYjMTA4MjsmIzEwODA7PC90ZXh0PjxsaW5lIHN0eWxlPSJzdHJva2U6IzE4MTgxODtzdHJva2Utd2lkdGg6MTsiIHgxPSI2NjgiIHgyPSI2NjgiIHkxPSIxMzQ3LjM1NTUiIHkyPSIxNDI3LjgyNDIiLz48cG9seWdvbiBmaWxsPSIjMTgxODE4IiBwb2ludHM9IjY2NCwxNDE3LjgyNDIsNjY4LDE0MjcuODI0Miw2NzIsMTQxNy44MjQyLDY2OCwxNDIxLjgyNDIiIHN0eWxlPSJzdHJva2U6IzE4MTgxODtzdHJva2Utd2lkdGg6MTsiLz48dGV4dCBmaWxsPSIjMDAwMDAwIiBmb250LWZhbWlseT0ic2Fucy1zZXJpZiIgZm9udC1zaXplPSIxMSIgbGVuZ3RoQWRqdXN0PSJzcGFjaW5nIiB0ZXh0TGVuZ3RoPSIzOC41IiB4PSI2NzIiIHk9IjEzNjcuNjI4OSI+JiMxMDU3OyYjMTA4MDsmIzEwODk7JiMxMDkwOyYjMTA3NzsmIzEwODQ7JiMxMDcyOzwvdGV4dD48bGluZSBzdHlsZT0ic3Ryb2tlOiMwMDAwMDA7c3Ryb2tlLXdpZHRoOjE7IiB4MT0iNjcyIiB4Mj0iNzEwLjUiIHkxPSIxMzU3LjIzMDUiIHkyPSIxMzU3LjIzMDUiLz48bGluZSBzdHlsZT0ic3Ryb2tlOiMwMDAwMDA7c3Ryb2tlLXdpZHRoOjE7IiB4MT0iNjcyIiB4Mj0iNzEwLjUiIHkxPSIxMzY5LjAwMzkiIHkyPSIxMzY5LjAwMzkiLz48bGluZSBzdHlsZT0ic3Ryb2tlOiMwMDAwMDA7c3Ryb2tlLXdpZHRoOjE7IiB4MT0iNjcyIiB4Mj0iNjcyIiB5MT0iMTM1Ny4yMzA1IiB5Mj0iMTM2OS4wMDM5Ii8+PGxpbmUgc3R5bGU9InN0cm9rZTojMDAwMDAwO3N0cm9rZS13aWR0aDoxOyIgeDE9IjcxMC41IiB4Mj0iNzEwLjUiIHkxPSIxMzU3LjIzMDUiIHkyPSIxMzY5LjAwMzkiLz48dGV4dCBmaWxsPSIjMDAwMDAwIiBmb250LWZhbWlseT0ic2Fucy1zZXJpZiIgZm9udC1zaXplPSIxMSIgbGVuZ3RoQWRqdXN0PSJzcGFjaW5nIiB0ZXh0TGVuZ3RoPSI1LjUiIHg9IjY3MiIgeT0iMTM4MS40MDIzIj4mIzE2MDs8L3RleHQ+PHRleHQgZmlsbD0iIzAwMDAwMCIgZm9udC1mYW1pbHk9InNhbnMtc2VyaWYiIGZvbnQtc2l6ZT0iMTEiIGxlbmd0aEFkanVzdD0ic3BhY2luZyIgdGV4dExlbmd0aD0iMzguNSIgeD0iNjcyIiB5PSIxMzk1LjE3NTgiPiYjMTA1NzsmIzEwODA7JiMxMDg5OyYjMTA5MDsmIzEwNzc7JiMxMDg0OyYjMTA3Mjs8L3RleHQ+PGxpbmUgc3R5bGU9InN0cm9rZTojMDAwMDAwO3N0cm9rZS13aWR0aDoxOyIgeDE9IjY3MiIgeDI9IjcxMC41IiB5MT0iMTM4NC43NzczIiB5Mj0iMTM4NC43NzczIi8+PGxpbmUgc3R5bGU9InN0cm9rZTojMDAwMDAwO3N0cm9rZS13aWR0aDoxOyIgeDE9IjY3MiIgeDI9IjcxMC41IiB5MT0iMTM5Ni41NTA4IiB5Mj0iMTM5Ni41NTA4Ii8+PGxpbmUgc3R5bGU9InN0cm9rZTojMDAwMDAwO3N0cm9rZS13aWR0aDoxOyIgeDE9IjY3MiIgeDI9IjY3MiIgeTE9IjEzODQuNzc3MyIgeTI9IjEzOTYuNTUwOCIvPjxsaW5lIHN0eWxlPSJzdHJva2U6IzAwMDAwMDtzdHJva2Utd2lkdGg6MTsiIHgxPSI3MTAuNSIgeDI9IjcxMC41IiB5MT0iMTM4NC43NzczIiB5Mj0iMTM5Ni41NTA4Ii8+PHRleHQgZmlsbD0iIzAwMDAwMCIgZm9udC1mYW1pbHk9InNhbnMtc2VyaWYiIGZvbnQtc2l6ZT0iMTEiIGxlbmd0aEFkanVzdD0ic3BhY2luZyIgdGV4dExlbmd0aD0iMTgxLjUiIHg9IjY3MiIgeT0iMTQwOC45NDkyIj46JiMxMDU3OyYjMTA5MjsmIzEwODY7JiMxMDg4OyYjMTA4NDsmIzEwODA7JiMxMDg4OyYjMTA4NjsmIzEwNzQ7JiMxMDcyOyYjMTA5MDsmIzExMDA7ICYjMTA4MDsmIzEwOTA7JiMxMDg2OyYjMTA3NTsmIzEwODY7JiMxMDc0OyYjMTA5OTsmIzEwNzc7ICYjMTA4ODsmIzEwNzc7JiMxMDc5OyYjMTA5MTsmIzEwODM7JiMxMTAwOyYjMTA5MDsmIzEwNzI7JiMxMDkwOyYjMTA5OTs8L3RleHQ+PGxpbmUgc3R5bGU9InN0cm9rZTojMTgxODE4O3N0cm9rZS13aWR0aDoxOyIgeDE9IjY2OCIgeDI9IjY2OCIgeTE9IjE0NjAuNjY4IiB5Mj0iMTU0MS4xMzY3Ii8+PHBvbHlnb24gZmlsbD0iIzE4MTgxOCIgcG9pbnRzPSI2NjQsMTUzMS4xMzY3LDY2OCwxNTQxLjEzNjcsNjcyLDE1MzEuMTM2Nyw2NjgsMTUzNS4xMzY3IiBzdHlsZT0ic3Ryb2tlOiMxODE4MTg7c3Ryb2tlLXdpZHRoOjE7Ii8+PHRleHQgZmlsbD0iIzAwMDAwMCIgZm9udC1mYW1pbHk9InNhbnMtc2VyaWYiIGZvbnQtc2l6ZT0iMTEiIGxlbmd0aEFkanVzdD0ic3BhY2luZyIgdGV4dExlbmd0aD0iMzguNSIgeD0iNjcyIiB5PSIxNDgwLjk0MTQiPiYjMTA1NzsmIzEwOTA7JiMxMDkxOyYjMTA3NjsmIzEwNzc7JiMxMDg1OyYjMTA5MDs8L3RleHQ+PGxpbmUgc3R5bGU9InN0cm9rZTojMDAwMDAwO3N0cm9rZS13aWR0aDoxOyIgeDE9IjY3MiIgeDI9IjcxMC41IiB5MT0iMTQ3MC41NDMiIHkyPSIxNDcwLjU0MyIvPjxsaW5lIHN0eWxlPSJzdHJva2U6IzAwMDAwMDtzdHJva2Utd2lkdGg6MTsiIHgxPSI2NzIiIHgyPSI3MTAuNSIgeTE9IjE0ODIuMzE2NCIgeTI9IjE0ODIuMzE2NCIvPjxsaW5lIHN0eWxlPSJzdHJva2U6IzAwMDAwMDtzdHJva2Utd2lkdGg6MTsiIHgxPSI2NzIiIHgyPSI2NzIiIHkxPSIxNDcwLjU0MyIgeTI9IjE0ODIuMzE2NCIvPjxsaW5lIHN0eWxlPSJzdHJva2U6IzAwMDAwMDtzdHJva2Utd2lkdGg6MTsiIHgxPSI3MTAuNSIgeDI9IjcxMC41IiB5MT0iMTQ3MC41NDMiIHkyPSIxNDgyLjMxNjQiLz48dGV4dCBmaWxsPSIjMDAwMDAwIiBmb250LWZhbWlseT0ic2Fucy1zZXJpZiIgZm9udC1zaXplPSIxMSIgbGVuZ3RoQWRqdXN0PSJzcGFjaW5nIiB0ZXh0TGVuZ3RoPSI1LjUiIHg9IjY3MiIgeT0iMTQ5NC43MTQ4Ij4mIzE2MDs8L3RleHQ+PHRleHQgZmlsbD0iIzAwMDAwMCIgZm9udC1mYW1pbHk9InNhbnMtc2VyaWYiIGZvbnQtc2l6ZT0iMTEiIGxlbmd0aEFkanVzdD0ic3BhY2luZyIgdGV4dExlbmd0aD0iMzguNSIgeD0iNjcyIiB5PSIxNTA4LjQ4ODMiPiYjMTA1NzsmIzEwOTA7JiMxMDkxOyYjMTA3NjsmIzEwNzc7JiMxMDg1OyYjMTA5MDs8L3RleHQ+PGxpbmUgc3R5bGU9InN0cm9rZTojMDAwMDAwO3N0cm9rZS13aWR0aDoxOyIgeDE9IjY3MiIgeDI9IjcxMC41IiB5MT0iMTQ5OC4wODk4IiB5Mj0iMTQ5OC4wODk4Ii8+PGxpbmUgc3R5bGU9InN0cm9rZTojMDAwMDAwO3N0cm9rZS13aWR0aDoxOyIgeDE9IjY3MiIgeDI9IjcxMC41IiB5MT0iMTUwOS44NjMzIiB5Mj0iMTUwOS44NjMzIi8+PGxpbmUgc3R5bGU9InN0cm9rZTojMDAwMDAwO3N0cm9rZS13aWR0aDoxOyIgeDE9IjY3MiIgeDI9IjY3MiIgeTE9IjE0OTguMDg5OCIgeTI9IjE1MDkuODYzMyIvPjxsaW5lIHN0eWxlPSJzdHJva2U6IzAwMDAwMDtzdHJva2Utd2lkdGg6MTsiIHgxPSI3MTAuNSIgeDI9IjcxMC41IiB5MT0iMTQ5OC4wODk4IiB5Mj0iMTUwOS44NjMzIi8+PHRleHQgZmlsbD0iIzAwMDAwMCIgZm9udC1mYW1pbHk9InNhbnMtc2VyaWYiIGZvbnQtc2l6ZT0iMTEiIGxlbmd0aEFkanVzdD0ic3BhY2luZyIgdGV4dExlbmd0aD0iMTU5LjUiIHg9IjY3MiIgeT0iMTUyMi4yNjE3Ij46JiMxMDU1OyYjMTA4NjsmIzEwODM7JiMxMDkxOyYjMTA5NTsmIzEwODA7JiMxMDkwOyYjMTEwMDsgJiMxMDgwOyYjMTA5MDsmIzEwODY7JiMxMDc1OyYjMTA4NjsmIzEwNzQ7JiMxMDk5OyYjMTA3NzsgJiMxMDg4OyYjMTA3NzsmIzEwNzk7JiMxMDkxOyYjMTA4MzsmIzExMDA7JiMxMDkwOyYjMTA3MjsmIzEwOTA7JiMxMDk5OzwvdGV4dD48bGluZSBzdHlsZT0ic3Ryb2tlOiMxODE4MTg7c3Ryb2tlLXdpZHRoOjE7IiB4MT0iNjY4IiB4Mj0iNjY4IiB5MT0iMTU3My45ODA1IiB5Mj0iMTU5My45ODA1Ii8+PHBvbHlnb24gZmlsbD0iIzE4MTgxOCIgcG9pbnRzPSI2NjQsMTU4My45ODA1LDY2OCwxNTkzLjk4MDUsNjcyLDE1ODMuOTgwNSw2NjgsMTU4Ny45ODA1IiBzdHlsZT0ic3Ryb2tlOiMxODE4MTg7c3Ryb2tlLXdpZHRoOjE7Ii8+PGxpbmUgc3R5bGU9InN0cm9rZTojMTgxODE4O3N0cm9rZS13aWR0aDoxOyIgeDE9IjY2OCIgeDI9IjY2OCIgeTE9IjExNjUuNDI1OCIgeTI9IjExODkuNDI1OCIvPjxwb2x5Z29uIGZpbGw9IiMxODE4MTgiIHBvaW50cz0iNjY0LDExNzkuNDI1OCw2NjgsMTE4OS40MjU4LDY3MiwxMTc5LjQyNTgsNjY4LDExODMuNDI1OCIgc3R5bGU9InN0cm9rZTojMTgxODE4O3N0cm9rZS13aWR0aDoxOyIvPjxsaW5lIHN0eWxlPSJzdHJva2U6IzE4MTgxODtzdHJva2Utd2lkdGg6MTsiIHgxPSI3NjUuMjUiIHgyPSI4NjMuNSIgeTE9IjExNTMuNDI1OCIgeTI9IjExNTMuNDI1OCIvPjxwb2x5Z29uIGZpbGw9IiMxODE4MTgiIHBvaW50cz0iODU5LjUsMTM5Mi4zOTA2LDg2My41LDE0MDIuMzkwNiw4NjcuNSwxMzkyLjM5MDYsODYzLjUsMTM5Ni4zOTA2IiBzdHlsZT0ic3Ryb2tlOiMxODE4MTg7c3Ryb2tlLXdpZHRoOjE7Ii8+PGxpbmUgc3R5bGU9InN0cm9rZTojMTgxODE4O3N0cm9rZS13aWR0aDoxOyIgeDE9Ijg2My41IiB4Mj0iODYzLjUiIHkxPSIxMTUzLjQyNTgiIHkyPSIxNjM3Ljk4MDUiLz48bGluZSBzdHlsZT0ic3Ryb2tlOiMxODE4MTg7c3Ryb2tlLXdpZHRoOjE7IiB4MT0iODYzLjUiIHgyPSI2NjgiIHkxPSIxNjM3Ljk4MDUiIHkyPSIxNjM3Ljk4MDUiLz48cG9seWdvbiBmaWxsPSIjMTgxODE4IiBwb2ludHM9IjY3OCwxNjMzLjk4MDUsNjY4LDE2MzcuOTgwNSw2NzgsMTY0MS45ODA1LDY3NCwxNjM3Ljk4MDUiIHN0eWxlPSJzdHJva2U6IzE4MTgxODtzdHJva2Utd2lkdGg6MTsiLz48bGluZSBzdHlsZT0ic3Ryb2tlOiMxODE4MTg7c3Ryb2tlLXdpZHRoOjE7IiB4MT0iNjY4IiB4Mj0iNjY4IiB5MT0iMTEyMS40MjU4IiB5Mj0iMTE0MS40MjU4Ii8+PHBvbHlnb24gZmlsbD0iIzE4MTgxOCIgcG9pbnRzPSI2NjQsMTEzMS40MjU4LDY2OCwxMTQxLjQyNTgsNjcyLDExMzEuNDI1OCw2NjgsMTEzNS40MjU4IiBzdHlsZT0ic3Ryb2tlOiMxODE4MTg7c3Ryb2tlLXdpZHRoOjE7Ii8+PHRleHQgZmlsbD0iIzAwMDAwMCIgZm9udC1mYW1pbHk9InNhbnMtc2VyaWYiIGZvbnQtc2l6ZT0iMTgiIGxlbmd0aEFkanVzdD0ic3BhY2luZyIgdGV4dExlbmd0aD0iMTA4IiB4PSI4MiIgeT0iMjguMDE1NiI+JiMxMDU1OyYjMTA4NjsmIzEwODM7JiMxMTAwOyYjMTA3OTsmIzEwODY7JiMxMDc0OyYjMTA3MjsmIzEwOTA7JiMxMDc3OyYjMTA4MzsmIzExMDA7PC90ZXh0Pjx0ZXh0IGZpbGw9IiMwMDAwMDAiIGZvbnQtZmFtaWx5PSJzYW5zLXNlcmlmIiBmb250LXNpemU9IjE4IiBsZW5ndGhBZGp1c3Q9InNwYWNpbmciIHRleHRMZW5ndGg9IjYzIiB4PSIzNjcuNSIgeT0iMjguMDE1NiI+JiMxMDU3OyYjMTA5MDsmIzEwOTE7JiMxMDc2OyYjMTA3NzsmIzEwODU7JiMxMDkwOzwvdGV4dD48dGV4dCBmaWxsPSIjMDAwMDAwIiBmb250LWZhbWlseT0ic2Fucy1zZXJpZiIgZm9udC1zaXplPSIxOCIgbGVuZ3RoQWRqdXN0PSJzcGFjaW5nIiB0ZXh0TGVuZ3RoPSIxMTciIHg9IjY1My4yNSIgeT0iMjguMDE1NiI+JiMxMDU1OyYjMTA4ODsmIzEwNzc7JiMxMDg3OyYjMTA4NjsmIzEwNzY7JiMxMDcyOyYjMTA3NDsmIzEwNzI7JiMxMDkwOyYjMTA3NzsmIzEwODM7JiMxMTAwOzwvdGV4dD48IS0tU1JDPVtoTFJCUlhmMTRCcGxMeW1uRmtHN0c0Zy1uS2hNQ2FlMDJ2Q1IxbnVYSmVIYjlyNmFkNnA3b1o2TjFSRGMzRW1ZLUdqd19ZWkxGU0Vva21tc2FOOG9DeERKdExyVHJVRkpUeE42b003aGlBeGdwS1JwcE42aE1HekxrX0tYMzg4RXRMMUEydERFQ19vVEs2Snc1RkV3NHJKZTV0eFVhSk96cXBUVDc3dDJ4cWo1Y1hRYTVOcXRHcm9QTGVFTmhySTdSa3J0a0I2YWdDRjBmUHFBdEcyNE95SnVFd1Q4Y080dm13OUZZSGNQZVE4ZkhQSk9ISk1lN1FhTno2RXpHeDVvNXg1dVZRM1FuczQzdnhYbjQyWExHUW1LMUxXMHBILWxFOVJ2b0JhWVBRYldXRkNPel9pS0xONzlQZnRWeG1KWC16Q0dpMGJkUE81X1NyWHlhQTg4Wk9fRjBVcWIzQm9hWWN6a3lqb2dvR05Ub0pXN3ZDQzlqYjlXdjBBa1dEMmRrSGMwMXlreGhVQXF0Sm05bWlSUnNmNUdOWW9kR2JVMEYtQ0daOUZJTTJZRnA4TnYwY09VNThlMjRndVdWM05ocTBDWVFVdUVCLVFhLVVHZHdoMlN6Ym5RZEJScUx4a3NFa3h0cm1FSTBtVTlmNVo0QjNOQzMxcGVEeGFINU1XTFJGLTF3QzhDTVJrU2NzS1hvS01EZExvb01nOXJ6YUtZVlRHTWs3QnRjUWJoQjVPSVNiQWdRZHpjbGJlOXk1ODhQZmxxczNDaWlyTlBIaGRhbkpMQ25XOGo3UjVNSGtRcC00NDRiU0JFYVNTLWRGREloRVg4MFl4RHJVRVZUUE1zUzRlVjVuaUx1b0dNUkt3YnJmb0Vqc3NxRXkxTHZqUG81OV92b2FQVWNxeHNmQUV4aDJ0VVNXQTZ3Y01ZbkhqVlQyTl8xQUFfRzEzbVRhYXB6YUpQYWlZRTR6T3U3VUc0djNoNUJUNzJsaVVTSm4xTWQ4c2tMRnZ3UGh0OWZNOXBMRVhybkk1RWtJUlVvV0hkV21aWXNETnFQOTZZY1lrNGtjVFZBNjVTZmZuclpTcklCN0ZmaTliTm1EcnA3cHJ3eVpZeDl1ZHB5QlpPbmozeDMtSGhvTXdTY3V2TXJ6OUUxRFdXNUtzclVxUlVZMk9zc2Rtc0xReVl4NzNhb05wbFBFbVZCQy1SX3ZnUjljQm1MLVh2cFZ4UlM0b3BzMGtmV1BfVTFtXzctelBvWW9VT0lMZmtOV2FSSUNqeWtuQ1UtTk50Z1BzUHRkQzRwNEp6dzE1RkUtNVVfeUNhYl9UdWE2YnJ4LUp5eXFKcXFuS3Z5VnlWRkJLbi1kYU1fMEswXS0tPjwvZz48L3N2Zz4=;" parent="1" vertex="1">
            <mxGeometry x="-1110" y="250" width="904" height="1653" as="geometry" />
          </mxCell>
        </UserObject>
        <mxCell id="2VtYgpJ3N2mm0Xix1u2V-1" style="edgeStyle=orthogonalEdgeStyle;rounded=0;orthogonalLoop=1;jettySize=auto;html=1;entryX=0.5;entryY=0;entryDx=0;entryDy=0;" edge="1" parent="1" source="2VtYgpJ3N2mm0Xix1u2V-2" target="2VtYgpJ3N2mm0Xix1u2V-4">
          <mxGeometry relative="1" as="geometry" />
        </mxCell>
        <mxCell id="2VtYgpJ3N2mm0Xix1u2V-2" value="" style="ellipse;html=1;shape=startState;fillColor=#000000;strokeColor=#ff0000;" vertex="1" parent="1">
          <mxGeometry x="-1840" y="489" width="30" height="30" as="geometry" />
        </mxCell>
        <mxCell id="2VtYgpJ3N2mm0Xix1u2V-3" style="edgeStyle=orthogonalEdgeStyle;rounded=0;orthogonalLoop=1;jettySize=auto;html=1;entryX=0.5;entryY=0;entryDx=0;entryDy=0;" edge="1" parent="1" source="2VtYgpJ3N2mm0Xix1u2V-4" target="2VtYgpJ3N2mm0Xix1u2V-10">
          <mxGeometry relative="1" as="geometry">
            <mxPoint x="-1825" y="629" as="targetPoint" />
          </mxGeometry>
        </mxCell>
        <mxCell id="2VtYgpJ3N2mm0Xix1u2V-4" value="Регистрация или Вход" style="rounded=1;whiteSpace=wrap;html=1;arcSize=40;fontColor=#000000;fillColor=#ffffc0;strokeColor=#ff0000;" vertex="1" parent="1">
          <mxGeometry x="-1885" y="539" width="120" height="40" as="geometry" />
        </mxCell>
        <mxCell id="2VtYgpJ3N2mm0Xix1u2V-7" style="edgeStyle=orthogonalEdgeStyle;rounded=0;orthogonalLoop=1;jettySize=auto;html=1;exitX=0.5;exitY=1;exitDx=0;exitDy=0;" edge="1" parent="1" source="2VtYgpJ3N2mm0Xix1u2V-10">
          <mxGeometry relative="1" as="geometry">
            <mxPoint x="-1825" y="749" as="targetPoint" />
            <Array as="points">
              <mxPoint x="-1825" y="749" />
            </Array>
          </mxGeometry>
        </mxCell>
        <mxCell id="2VtYgpJ3N2mm0Xix1u2V-8" style="edgeStyle=orthogonalEdgeStyle;rounded=0;orthogonalLoop=1;jettySize=auto;html=1;exitX=1;exitY=0.5;exitDx=0;exitDy=0;entryX=0.5;entryY=0;entryDx=0;entryDy=0;" edge="1" parent="1" source="2VtYgpJ3N2mm0Xix1u2V-10" target="2VtYgpJ3N2mm0Xix1u2V-25">
          <mxGeometry relative="1" as="geometry">
            <mxPoint x="-1580" y="709" as="targetPoint" />
          </mxGeometry>
        </mxCell>
        <mxCell id="2VtYgpJ3N2mm0Xix1u2V-9" value="да" style="edgeLabel;html=1;align=center;verticalAlign=middle;resizable=0;points=[];" vertex="1" connectable="0" parent="2VtYgpJ3N2mm0Xix1u2V-8">
          <mxGeometry x="-0.2517" y="-1" relative="1" as="geometry">
            <mxPoint x="-4" y="-11" as="offset" />
          </mxGeometry>
        </mxCell>
        <mxCell id="2VtYgpJ3N2mm0Xix1u2V-10" value="Данные&lt;div&gt;&amp;nbsp;верны?&lt;/div&gt;" style="rhombus;whiteSpace=wrap;html=1;fontColor=#000000;fillColor=#ffffc0;strokeColor=#ff0000;" vertex="1" parent="1">
          <mxGeometry x="-1875.24" y="639" width="100" height="50" as="geometry" />
        </mxCell>
        <mxCell id="2VtYgpJ3N2mm0Xix1u2V-17" value="нет" style="text;html=1;align=center;verticalAlign=middle;resizable=0;points=[];autosize=1;strokeColor=none;fillColor=none;" vertex="1" parent="1">
          <mxGeometry x="-1860" y="689" width="40" height="30" as="geometry" />
        </mxCell>
        <mxCell id="2VtYgpJ3N2mm0Xix1u2V-21" value="[&lt;span style=&quot;background-color: transparent; color: light-dark(rgb(0, 0, 0), rgb(255, 255, 255));&quot;&gt;Проверка учетных данных]&lt;/span&gt;" style="text;html=1;align=center;verticalAlign=middle;whiteSpace=wrap;rounded=0;" vertex="1" parent="1">
          <mxGeometry x="-1920" y="579" width="190" height="30" as="geometry" />
        </mxCell>
        <mxCell id="2VtYgpJ3N2mm0Xix1u2V-22" value="Создание профиля студента" style="rounded=1;whiteSpace=wrap;html=1;arcSize=40;fontColor=#000000;fillColor=#ffffc0;strokeColor=#ff0000;" vertex="1" parent="1">
          <mxGeometry x="-1885.24" y="749" width="120" height="40" as="geometry" />
        </mxCell>
        <mxCell id="2VtYgpJ3N2mm0Xix1u2V-23" value="[Повторить попытку входа]" style="text;html=1;align=center;verticalAlign=middle;whiteSpace=wrap;rounded=0;" vertex="1" parent="1">
          <mxGeometry x="-1920.24" y="799" width="190" height="30" as="geometry" />
        </mxCell>
        <mxCell id="2VtYgpJ3N2mm0Xix1u2V-24" style="edgeStyle=orthogonalEdgeStyle;rounded=0;orthogonalLoop=1;jettySize=auto;html=1;exitX=0.5;exitY=1;exitDx=0;exitDy=0;entryX=0;entryY=0.5;entryDx=0;entryDy=0;" edge="1" parent="1" source="2VtYgpJ3N2mm0Xix1u2V-22" target="2VtYgpJ3N2mm0Xix1u2V-10">
          <mxGeometry relative="1" as="geometry">
            <mxPoint x="-1825" y="849" as="targetPoint" />
            <mxPoint x="-1815" y="699" as="sourcePoint" />
            <Array as="points">
              <mxPoint x="-1825" y="829" />
              <mxPoint x="-1960" y="829" />
              <mxPoint x="-1960" y="664" />
            </Array>
          </mxGeometry>
        </mxCell>
        <mxCell id="2VtYgpJ3N2mm0Xix1u2V-27" style="edgeStyle=orthogonalEdgeStyle;rounded=0;orthogonalLoop=1;jettySize=auto;html=1;entryX=0.5;entryY=0;entryDx=0;entryDy=0;" edge="1" parent="1" source="2VtYgpJ3N2mm0Xix1u2V-25" target="2VtYgpJ3N2mm0Xix1u2V-26">
          <mxGeometry relative="1" as="geometry" />
        </mxCell>
        <mxCell id="2VtYgpJ3N2mm0Xix1u2V-25" value="Начать обучающий модуль" style="rounded=1;whiteSpace=wrap;html=1;arcSize=40;fontColor=#000000;fillColor=#ffffc0;strokeColor=#ff0000;" vertex="1" parent="1">
          <mxGeometry x="-1640" y="689" width="120" height="40" as="geometry" />
        </mxCell>
        <mxCell id="2VtYgpJ3N2mm0Xix1u2V-29" style="edgeStyle=orthogonalEdgeStyle;rounded=0;orthogonalLoop=1;jettySize=auto;html=1;" edge="1" parent="1" source="2VtYgpJ3N2mm0Xix1u2V-26" target="2VtYgpJ3N2mm0Xix1u2V-28">
          <mxGeometry relative="1" as="geometry" />
        </mxCell>
        <mxCell id="2VtYgpJ3N2mm0Xix1u2V-26" value="Пройти уроки" style="rounded=1;whiteSpace=wrap;html=1;arcSize=40;fontColor=#000000;fillColor=#ffffc0;strokeColor=#ff0000;" vertex="1" parent="1">
          <mxGeometry x="-1640" y="779" width="120" height="40" as="geometry" />
        </mxCell>
        <mxCell id="2VtYgpJ3N2mm0Xix1u2V-31" style="edgeStyle=orthogonalEdgeStyle;rounded=0;orthogonalLoop=1;jettySize=auto;html=1;entryX=0.5;entryY=0;entryDx=0;entryDy=0;" edge="1" parent="1" source="2VtYgpJ3N2mm0Xix1u2V-28" target="2VtYgpJ3N2mm0Xix1u2V-30">
          <mxGeometry relative="1" as="geometry" />
        </mxCell>
        <mxCell id="2VtYgpJ3N2mm0Xix1u2V-28" value="Запросить тестирование" style="rounded=1;whiteSpace=wrap;html=1;arcSize=40;fontColor=#000000;fillColor=#ffffc0;strokeColor=#ff0000;" vertex="1" parent="1">
          <mxGeometry x="-1640" y="859" width="120" height="40" as="geometry" />
        </mxCell>
        <mxCell id="2VtYgpJ3N2mm0Xix1u2V-33" style="edgeStyle=orthogonalEdgeStyle;rounded=0;orthogonalLoop=1;jettySize=auto;html=1;" edge="1" parent="1" source="2VtYgpJ3N2mm0Xix1u2V-30" target="2VtYgpJ3N2mm0Xix1u2V-32">
          <mxGeometry relative="1" as="geometry" />
        </mxCell>
        <mxCell id="2VtYgpJ3N2mm0Xix1u2V-30" value="Пройти тест" style="rounded=1;whiteSpace=wrap;html=1;arcSize=40;fontColor=#000000;fillColor=#ffffc0;strokeColor=#ff0000;" vertex="1" parent="1">
          <mxGeometry x="-1640" y="939" width="120" height="40" as="geometry" />
        </mxCell>
        <mxCell id="2VtYgpJ3N2mm0Xix1u2V-35" style="edgeStyle=orthogonalEdgeStyle;rounded=0;orthogonalLoop=1;jettySize=auto;html=1;entryX=0.5;entryY=0;entryDx=0;entryDy=0;" edge="1" parent="1" source="2VtYgpJ3N2mm0Xix1u2V-32" target="2VtYgpJ3N2mm0Xix1u2V-36">
          <mxGeometry relative="1" as="geometry">
            <mxPoint x="-1580" y="1129" as="targetPoint" />
          </mxGeometry>
        </mxCell>
        <mxCell id="2VtYgpJ3N2mm0Xix1u2V-32" value="Отправить тест" style="rounded=1;whiteSpace=wrap;html=1;arcSize=40;fontColor=#000000;fillColor=#ffffc0;strokeColor=#ff0000;" vertex="1" parent="1">
          <mxGeometry x="-1640" y="1019" width="120" height="40" as="geometry" />
        </mxCell>
        <mxCell id="2VtYgpJ3N2mm0Xix1u2V-34" value="Автоматическая проверка теста" style="text;html=1;align=center;verticalAlign=middle;whiteSpace=wrap;rounded=0;" vertex="1" parent="1">
          <mxGeometry x="-1675" y="1059" width="190" height="30" as="geometry" />
        </mxCell>
        <mxCell id="2VtYgpJ3N2mm0Xix1u2V-37" style="edgeStyle=orthogonalEdgeStyle;rounded=0;orthogonalLoop=1;jettySize=auto;html=1;entryX=0.5;entryY=0;entryDx=0;entryDy=0;" edge="1" parent="1" source="2VtYgpJ3N2mm0Xix1u2V-36" target="2VtYgpJ3N2mm0Xix1u2V-41">
          <mxGeometry relative="1" as="geometry">
            <mxPoint x="-1580" y="1250" as="targetPoint" />
          </mxGeometry>
        </mxCell>
        <mxCell id="2VtYgpJ3N2mm0Xix1u2V-38" style="edgeStyle=orthogonalEdgeStyle;rounded=0;orthogonalLoop=1;jettySize=auto;html=1;entryX=0.5;entryY=0;entryDx=0;entryDy=0;" edge="1" parent="1" source="2VtYgpJ3N2mm0Xix1u2V-36" target="2VtYgpJ3N2mm0Xix1u2V-52">
          <mxGeometry relative="1" as="geometry">
            <mxPoint x="-1359.9999999999998" y="1250" as="targetPoint" />
          </mxGeometry>
        </mxCell>
        <mxCell id="2VtYgpJ3N2mm0Xix1u2V-36" value="Баллы выше&lt;div&gt;&amp;nbsp;порога?&lt;/div&gt;" style="rhombus;whiteSpace=wrap;html=1;fontColor=#000000;fillColor=#ffffc0;strokeColor=#ff0000;" vertex="1" parent="1">
          <mxGeometry x="-1650" y="1109" width="140" height="60" as="geometry" />
        </mxCell>
        <mxCell id="2VtYgpJ3N2mm0Xix1u2V-39" value="да" style="text;html=1;align=center;verticalAlign=middle;resizable=0;points=[];autosize=1;strokeColor=none;fillColor=none;" vertex="1" parent="1">
          <mxGeometry x="-1620" y="1169" width="40" height="30" as="geometry" />
        </mxCell>
        <mxCell id="2VtYgpJ3N2mm0Xix1u2V-40" value="нет" style="text;html=1;align=center;verticalAlign=middle;resizable=0;points=[];autosize=1;strokeColor=none;fillColor=none;" vertex="1" parent="1">
          <mxGeometry x="-1525" y="1109" width="40" height="30" as="geometry" />
        </mxCell>
        <mxCell id="2VtYgpJ3N2mm0Xix1u2V-44" style="edgeStyle=orthogonalEdgeStyle;rounded=0;orthogonalLoop=1;jettySize=auto;html=1;entryX=0.5;entryY=0;entryDx=0;entryDy=0;" edge="1" parent="1" source="2VtYgpJ3N2mm0Xix1u2V-41" target="2VtYgpJ3N2mm0Xix1u2V-45">
          <mxGeometry relative="1" as="geometry">
            <mxPoint x="-1580" y="1310" as="targetPoint" />
          </mxGeometry>
        </mxCell>
        <mxCell id="2VtYgpJ3N2mm0Xix1u2V-41" value="Отметить как «пройдено»" style="rounded=1;whiteSpace=wrap;html=1;arcSize=40;fontColor=#000000;fillColor=#ffffc0;strokeColor=#ff0000;" vertex="1" parent="1">
          <mxGeometry x="-1640" y="1230" width="120" height="40" as="geometry" />
        </mxCell>
        <mxCell id="2VtYgpJ3N2mm0Xix1u2V-47" style="edgeStyle=orthogonalEdgeStyle;rounded=0;orthogonalLoop=1;jettySize=auto;html=1;" edge="1" parent="1" source="2VtYgpJ3N2mm0Xix1u2V-45" target="2VtYgpJ3N2mm0Xix1u2V-46">
          <mxGeometry relative="1" as="geometry" />
        </mxCell>
        <mxCell id="2VtYgpJ3N2mm0Xix1u2V-45" value="Уведомить студента о удаче" style="rounded=1;whiteSpace=wrap;html=1;arcSize=40;fontColor=#000000;fillColor=#ffffc0;strokeColor=#ff0000;" vertex="1" parent="1">
          <mxGeometry x="-1640" y="1320" width="120" height="40" as="geometry" />
        </mxCell>
        <mxCell id="2VtYgpJ3N2mm0Xix1u2V-51" style="edgeStyle=orthogonalEdgeStyle;rounded=0;orthogonalLoop=1;jettySize=auto;html=1;" edge="1" parent="1" source="2VtYgpJ3N2mm0Xix1u2V-46" target="2VtYgpJ3N2mm0Xix1u2V-82">
          <mxGeometry relative="1" as="geometry">
            <Array as="points">
              <mxPoint x="-1580" y="1950" />
              <mxPoint x="-1580" y="1950" />
            </Array>
          </mxGeometry>
        </mxCell>
        <mxCell id="2VtYgpJ3N2mm0Xix1u2V-46" value="Уведомить студента о удаче" style="rounded=1;whiteSpace=wrap;html=1;arcSize=40;fontColor=#000000;fillColor=#ffffc0;strokeColor=#ff0000;" vertex="1" parent="1">
          <mxGeometry x="-1640" y="1400" width="120" height="40" as="geometry" />
        </mxCell>
        <mxCell id="2VtYgpJ3N2mm0Xix1u2V-50" value="&lt;div&gt;&lt;br&gt;&lt;/div&gt;" style="ellipse;html=1;shape=endState;fillColor=#000000;strokeColor=#ff0000;" vertex="1" parent="1">
          <mxGeometry x="-1535" y="2190" width="30" height="30" as="geometry" />
        </mxCell>
        <mxCell id="2VtYgpJ3N2mm0Xix1u2V-54" style="edgeStyle=orthogonalEdgeStyle;rounded=0;orthogonalLoop=1;jettySize=auto;html=1;" edge="1" parent="1" source="2VtYgpJ3N2mm0Xix1u2V-52" target="2VtYgpJ3N2mm0Xix1u2V-53">
          <mxGeometry relative="1" as="geometry" />
        </mxCell>
        <mxCell id="2VtYgpJ3N2mm0Xix1u2V-52" value="Проверить результаты теста" style="rounded=1;whiteSpace=wrap;html=1;arcSize=40;fontColor=#000000;fillColor=#ffffc0;strokeColor=#ff0000;" vertex="1" parent="1">
          <mxGeometry x="-1430" y="1230" width="120" height="40" as="geometry" />
        </mxCell>
        <mxCell id="2VtYgpJ3N2mm0Xix1u2V-56" style="edgeStyle=orthogonalEdgeStyle;rounded=0;orthogonalLoop=1;jettySize=auto;html=1;entryX=0.5;entryY=0;entryDx=0;entryDy=0;" edge="1" parent="1" source="2VtYgpJ3N2mm0Xix1u2V-53" target="2VtYgpJ3N2mm0Xix1u2V-57">
          <mxGeometry relative="1" as="geometry">
            <mxPoint x="-1370" y="1370" as="targetPoint" />
          </mxGeometry>
        </mxCell>
        <mxCell id="2VtYgpJ3N2mm0Xix1u2V-53" value="Предоставить подробную обратную связь" style="rounded=1;whiteSpace=wrap;html=1;arcSize=40;fontColor=#000000;fillColor=#ffffc0;strokeColor=#ff0000;" vertex="1" parent="1">
          <mxGeometry x="-1430" y="1300" width="120" height="40" as="geometry" />
        </mxCell>
        <mxCell id="2VtYgpJ3N2mm0Xix1u2V-58" style="edgeStyle=orthogonalEdgeStyle;rounded=0;orthogonalLoop=1;jettySize=auto;html=1;entryX=0.866;entryY=0.238;entryDx=0;entryDy=0;exitX=1;exitY=0.5;exitDx=0;exitDy=0;entryPerimeter=0;" edge="1" parent="1" source="2VtYgpJ3N2mm0Xix1u2V-57" target="2VtYgpJ3N2mm0Xix1u2V-82">
          <mxGeometry relative="1" as="geometry">
            <mxPoint x="-1200" y="1660" as="targetPoint" />
            <Array as="points">
              <mxPoint x="-1160" y="1495" />
              <mxPoint x="-1160" y="2110" />
              <mxPoint x="-1447" y="2110" />
            </Array>
          </mxGeometry>
        </mxCell>
        <mxCell id="2VtYgpJ3N2mm0Xix1u2V-62" style="edgeStyle=orthogonalEdgeStyle;rounded=0;orthogonalLoop=1;jettySize=auto;html=1;entryX=0.5;entryY=0;entryDx=0;entryDy=0;" edge="1" parent="1" source="2VtYgpJ3N2mm0Xix1u2V-57" target="2VtYgpJ3N2mm0Xix1u2V-63">
          <mxGeometry relative="1" as="geometry">
            <mxPoint x="-1370" y="1590" as="targetPoint" />
          </mxGeometry>
        </mxCell>
        <mxCell id="2VtYgpJ3N2mm0Xix1u2V-57" value="Нужна дополнительная поддержка?" style="rhombus;whiteSpace=wrap;html=1;fontColor=#000000;fillColor=#ffffc0;strokeColor=#ff0000;" vertex="1" parent="1">
          <mxGeometry x="-1460" y="1450" width="180" height="90" as="geometry" />
        </mxCell>
        <mxCell id="2VtYgpJ3N2mm0Xix1u2V-60" value="нет" style="text;html=1;align=center;verticalAlign=middle;resizable=0;points=[];autosize=1;strokeColor=none;fillColor=none;" vertex="1" parent="1">
          <mxGeometry x="-1290" y="1470" width="40" height="30" as="geometry" />
        </mxCell>
        <mxCell id="2VtYgpJ3N2mm0Xix1u2V-61" value="да" style="text;html=1;align=center;verticalAlign=middle;resizable=0;points=[];autosize=1;strokeColor=none;fillColor=none;" vertex="1" parent="1">
          <mxGeometry x="-1420" y="1530" width="40" height="30" as="geometry" />
        </mxCell>
        <mxCell id="2VtYgpJ3N2mm0Xix1u2V-65" style="edgeStyle=orthogonalEdgeStyle;rounded=0;orthogonalLoop=1;jettySize=auto;html=1;" edge="1" parent="1" source="2VtYgpJ3N2mm0Xix1u2V-63" target="2VtYgpJ3N2mm0Xix1u2V-64">
          <mxGeometry relative="1" as="geometry" />
        </mxCell>
        <mxCell id="2VtYgpJ3N2mm0Xix1u2V-63" value="&lt;div style=&quot;text-align: start;&quot;&gt;Назначить сессию&amp;nbsp; &lt;span style=&quot;white-space: pre;&quot;&gt;&#x9;&lt;/span&gt;поддержки&lt;/div&gt;" style="rounded=1;whiteSpace=wrap;html=1;arcSize=40;fontColor=#000000;fillColor=#ffffc0;strokeColor=#ff0000;" vertex="1" parent="1">
          <mxGeometry x="-1430" y="1570" width="120" height="40" as="geometry" />
        </mxCell>
        <mxCell id="2VtYgpJ3N2mm0Xix1u2V-67" style="edgeStyle=orthogonalEdgeStyle;rounded=0;orthogonalLoop=1;jettySize=auto;html=1;" edge="1" parent="1" source="2VtYgpJ3N2mm0Xix1u2V-64" target="2VtYgpJ3N2mm0Xix1u2V-66">
          <mxGeometry relative="1" as="geometry" />
        </mxCell>
        <mxCell id="2VtYgpJ3N2mm0Xix1u2V-64" value="&lt;div style=&quot;&quot;&gt;Посетить сессию поддержки&lt;/div&gt;" style="rounded=1;whiteSpace=wrap;html=1;arcSize=40;fontColor=#000000;fillColor=#ffffc0;strokeColor=#ff0000;align=center;" vertex="1" parent="1">
          <mxGeometry x="-1430" y="1640" width="120" height="40" as="geometry" />
        </mxCell>
        <mxCell id="2VtYgpJ3N2mm0Xix1u2V-69" style="edgeStyle=orthogonalEdgeStyle;rounded=0;orthogonalLoop=1;jettySize=auto;html=1;entryX=0.5;entryY=0;entryDx=0;entryDy=0;" edge="1" parent="1" source="2VtYgpJ3N2mm0Xix1u2V-66" target="2VtYgpJ3N2mm0Xix1u2V-68">
          <mxGeometry relative="1" as="geometry" />
        </mxCell>
        <mxCell id="2VtYgpJ3N2mm0Xix1u2V-66" value="&lt;div style=&quot;&quot;&gt;Повторное прохождение теста&lt;/div&gt;" style="rounded=1;whiteSpace=wrap;html=1;arcSize=40;fontColor=#000000;fillColor=#ffffc0;strokeColor=#ff0000;align=center;" vertex="1" parent="1">
          <mxGeometry x="-1430" y="1714" width="120" height="40" as="geometry" />
        </mxCell>
        <mxCell id="2VtYgpJ3N2mm0Xix1u2V-73" style="edgeStyle=orthogonalEdgeStyle;rounded=0;orthogonalLoop=1;jettySize=auto;html=1;" edge="1" parent="1" source="2VtYgpJ3N2mm0Xix1u2V-68" target="2VtYgpJ3N2mm0Xix1u2V-72">
          <mxGeometry relative="1" as="geometry" />
        </mxCell>
        <mxCell id="2VtYgpJ3N2mm0Xix1u2V-68" value="&lt;div style=&quot;&quot;&gt;Обновить прогресс студента&lt;/div&gt;" style="rounded=1;whiteSpace=wrap;html=1;arcSize=40;fontColor=#000000;fillColor=#ffffc0;strokeColor=#ff0000;align=center;" vertex="1" parent="1">
          <mxGeometry x="-1430" y="1790" width="120" height="40" as="geometry" />
        </mxCell>
        <mxCell id="2VtYgpJ3N2mm0Xix1u2V-77" style="edgeStyle=orthogonalEdgeStyle;rounded=0;orthogonalLoop=1;jettySize=auto;html=1;entryX=0.5;entryY=0;entryDx=0;entryDy=0;" edge="1" parent="1" source="2VtYgpJ3N2mm0Xix1u2V-72" target="2VtYgpJ3N2mm0Xix1u2V-76">
          <mxGeometry relative="1" as="geometry" />
        </mxCell>
        <mxCell id="2VtYgpJ3N2mm0Xix1u2V-72" value="&lt;div style=&quot;&quot;&gt;Сформировать итоговые результаты&lt;/div&gt;" style="rounded=1;whiteSpace=wrap;html=1;arcSize=40;fontColor=#000000;fillColor=#ffffc0;strokeColor=#ff0000;align=center;" vertex="1" parent="1">
          <mxGeometry x="-1430" y="1863" width="120" height="40" as="geometry" />
        </mxCell>
        <mxCell id="2VtYgpJ3N2mm0Xix1u2V-78" style="edgeStyle=orthogonalEdgeStyle;rounded=0;orthogonalLoop=1;jettySize=auto;html=1;entryX=0.55;entryY=0;entryDx=0;entryDy=0;entryPerimeter=0;" edge="1" parent="1" source="2VtYgpJ3N2mm0Xix1u2V-76" target="2VtYgpJ3N2mm0Xix1u2V-82">
          <mxGeometry relative="1" as="geometry">
            <mxPoint x="-1540" y="2090" as="targetPoint" />
            <Array as="points">
              <mxPoint x="-1250" y="1970" />
              <mxPoint x="-1250" y="2050" />
              <mxPoint x="-1510" y="2050" />
            </Array>
          </mxGeometry>
        </mxCell>
        <mxCell id="2VtYgpJ3N2mm0Xix1u2V-79" style="edgeStyle=orthogonalEdgeStyle;rounded=0;orthogonalLoop=1;jettySize=auto;html=1;entryX=1;entryY=0.5;entryDx=0;entryDy=0;" edge="1" parent="1" source="2VtYgpJ3N2mm0Xix1u2V-76" target="2VtYgpJ3N2mm0Xix1u2V-41">
          <mxGeometry relative="1" as="geometry" />
        </mxCell>
        <mxCell id="2VtYgpJ3N2mm0Xix1u2V-76" value="Баллы выше&lt;div&gt;&amp;nbsp;порога?&lt;/div&gt;" style="rhombus;whiteSpace=wrap;html=1;fontColor=#000000;fillColor=#ffffc0;strokeColor=#ff0000;" vertex="1" parent="1">
          <mxGeometry x="-1440" y="1940" width="140" height="60" as="geometry" />
        </mxCell>
        <mxCell id="2VtYgpJ3N2mm0Xix1u2V-80" value="нет" style="text;html=1;align=center;verticalAlign=middle;resizable=0;points=[];autosize=1;strokeColor=none;fillColor=none;" vertex="1" parent="1">
          <mxGeometry x="-1310" y="1940" width="40" height="30" as="geometry" />
        </mxCell>
        <mxCell id="2VtYgpJ3N2mm0Xix1u2V-81" value="да" style="text;html=1;align=center;verticalAlign=middle;resizable=0;points=[];autosize=1;strokeColor=none;fillColor=none;" vertex="1" parent="1">
          <mxGeometry x="-1470" y="1940" width="40" height="30" as="geometry" />
        </mxCell>
        <mxCell id="2VtYgpJ3N2mm0Xix1u2V-82" value="" style="shape=line;html=1;strokeWidth=6;strokeColor=#ff0000;" vertex="1" parent="1">
          <mxGeometry x="-1620" y="2120" width="200" height="10" as="geometry" />
        </mxCell>
        <mxCell id="2VtYgpJ3N2mm0Xix1u2V-85" style="edgeStyle=orthogonalEdgeStyle;rounded=0;orthogonalLoop=1;jettySize=auto;html=1;entryX=0.526;entryY=0.159;entryDx=0;entryDy=0;entryPerimeter=0;" edge="1" parent="1" source="2VtYgpJ3N2mm0Xix1u2V-82" target="2VtYgpJ3N2mm0Xix1u2V-50">
          <mxGeometry relative="1" as="geometry" />
        </mxCell>
      </root>
    </mxGraphModel>
  </diagram>
</mxfile>
